<svg xmlns="http://www.w3.org/2000/svg" fill="none" viewBox="0 0 81 82"><rect width="61.04" height="61.04" x="80.58" y="25.42" fill="#F2F6FF" rx="8.72" transform="rotate(112.85 80.58 25.42)"/><path fill="#fff" fill-rule="evenodd" d="M6.53 14A2.53 2.53 0 0 0 4 16.53v27.2c0 1.14 1.38 1.7 2.18.89l5.2-5.35h22.09c1.4 0 2.53-1.14 2.53-2.54v-20.2c0-1.4-1.13-2.53-2.53-2.53zm37 7.38A2.53 2.53 0 0 0 41 23.92v20.14c0 1.4 1.13 2.54 2.53 2.54H66.4l5.44 5.4c.8.8 2.16.23 2.16-.9V23.92c0-1.4-1.14-2.54-2.53-2.54z" clip-rule="evenodd"/><path fill="#E8E8E8" fill-rule="evenodd" d="M5.5 38.01v5.15l5.25-5.4h22.72c.57 0 1.03-.45 1.03-1.03v-20.2c0-.57-.46-1.03-1.03-1.03H6.53c-.57 0-1.03.46-1.03 1.03zM4 16.53C4 15.13 5.14 14 6.53 14h26.94c1.4 0 2.53 1.13 2.53 2.53v20.2c0 1.4-1.13 2.54-2.53 2.54H11.38l-5.2 5.35c-.8.81-2.18.25-2.18-.89zM67 45.1l5.5 5.46V23.92c0-.57-.46-1.04-1.03-1.04H43.53c-.57 0-1.03.47-1.03 1.04v20.14c0 .57.46 1.04 1.03 1.04zM41 23.92c0-1.4 1.13-2.54 2.53-2.54h27.94c1.4 0 2.53 1.14 2.53 2.54v27.2c0 1.12-1.36 1.69-2.16.9l-5.45-5.42H43.53A2.53 2.53 0 0 1 41 44.06z" clip-rule="evenodd"/><path fill="#CDF" d="M49.95 36.94c1.23 0 2.24-1 2.24-2.22 0-1.23-1-2.22-2.24-2.22s-2.24.99-2.24 2.22c0 1.22 1 2.22 2.24 2.22m7.83 0c1.23 0 2.23-1 2.23-2.22a2.23 2.23 0 0 0-4.47 0c0 1.22 1 2.22 2.24 2.22m7.83 0c1.24 0 2.24-1 2.24-2.22 0-1.23-1-2.22-2.24-2.22s-2.24.99-2.24 2.22c0 1.22 1 2.22 2.24 2.22"/><circle cx="58.26" cy="56.61" r="6.61" fill="#B3CCFF"/><path fill="#B3CCFF" d="M49 72.4a6.43 6.43 0 0 1 6.43-6.44h5.14A6.43 6.43 0 0 1 67 72.4v7.72H49z"/><path fill="#05F" d="M1 53.27C1 51.47 2.47 50 4.27 50h31.1c1.8 0 3.27 1.47 3.27 3.27v11.46c0 1.8-1.47 3.27-3.28 3.27H4.27A3.27 3.27 0 0 1 1 64.73z"/><path fill="#fff" d="M6.01 63.73v-1.24c.6-.56 1.15-1.08 1.64-1.56.5-.5.93-.95 1.28-1.37q.54-.645.84-1.2t.3-1.05c0-.46-.11-.81-.35-1.05a1.28 1.28 0 0 0-.97-.37c-.34 0-.65.1-.91.3q-.405.27-.75.66L5.9 55.7c.46-.5.93-.86 1.41-1.1a3.6 3.6 0 0 1 1.73-.39 3.38 3.38 0 0 1 2.24.82q.405.39.63.93a3.23 3.23 0 0 1-.03 2.43c-.17.4-.4.81-.68 1.22-.27.4-.6.81-.96 1.23-.35.4-.72.8-1.1 1.19a14 14 0 0 1 1.56-.12h1.89v1.83H6zm11.57 0v-2.24h-4.05V60l3.42-5.62h2.65v5.46h1.07v1.65H19.6v2.24zm-1.97-3.89h1.97v-1.52a21 21 0 0 1 .09-2.09h-.06a53 53 0 0 1-.77 1.58zm5.61 6.24 2.96-12.8h1.42l-2.96 12.8zm7.14-2.35c.04-.78.11-1.49.2-2.14a11.8 11.8 0 0 1 2.3-5.39h-4.2v-1.82h6.52v1.32c-.54.66-.98 1.28-1.31 1.86a8.6 8.6 0 0 0-.77 1.78c-.18.6-.3 1.27-.38 1.97s-.14 1.5-.18 2.42z"/><path fill="#05F" fill-rule="evenodd" d="M67 12v-2h1v2h2v1h-2v2h-1v-2h-2v-1z" clip-rule="evenodd"/><path fill="#FFB700" d="M11.6 20.68h16.26v1.11H11.6v-1.1zm0 3.34h13v1.12h-13zm0 3.34h14.1v1.12H11.6zm0 3.34h13v1.12h-13z"/><path fill="#FFB700" fill-rule="evenodd" d="M63 7a2 2 0 1 1-4 0 2 2 0 0 1 4 0m-3.04 0a1.04 1.04 0 1 0 2.08 0 1.04 1.04 0 0 0-2.08 0" clip-rule="evenodd"/></svg>