<svg xmlns="http://www.w3.org/2000/svg" fill="none" viewBox="0 0 84 84"><rect width="61.35" height="61.35" x=".95" y="29.45" fill="#FAFAFA" rx="9.58" transform="rotate(-27.63 .95 29.45)"/><path fill="#FFB700" fill-rule="evenodd" d="M9 11V9h1v2h2v1h-2v2H9v-2H7v-1zm64 65v-2h1v2h2v1h-2v2h-1v-2h-2v-1z" clip-rule="evenodd"/><path fill="#E5EEFF" d="M14 24.98h54.42c3.08 0 5.58 2.5 5.58 5.58v30.7c0 3.08-2.5 5.58-5.58 5.58H19.58A5.58 5.58 0 0 1 14 61.26z"/><path fill="#B3CCFF" d="M14 20.8a2.8 2.8 0 0 1 2.8-2.8h25.1a2.8 2.8 0 0 1 2.8 2.8v4.18H14v-4.19z"/><path fill="#05F" fill-rule="evenodd" d="M22 78a16 16 0 1 0 0-32 16 16 0 0 0 0 32" clip-rule="evenodd"/><path fill="#fff" fill-rule="evenodd" d="M27.09 58.64H14.36v8.9h15.27v-8.9H27.1zm-5.1-6.37a5.19 5.19 0 0 1 5.1 5.1h3.82v11.45H13.09V57.36h3.82A5.19 5.19 0 0 1 22 52.27zm-3.81 5.1h7.64a3.82 3.82 0 1 0-7.64 0m2.55 5.08a1.27 1.27 0 1 1 2.54 0V65a1.27 1.27 0 0 1-2.54 0z" clip-rule="evenodd"/><path fill="#FF46FB" fill-rule="evenodd" d="M62.45 56.45h5.72v5.72h-5.72z" clip-rule="evenodd"/><path fill="#CA41FC" fill-rule="evenodd" d="M56.72 56.45h5.73v5.72h-5.73z" clip-rule="evenodd"/><path fill="#8B48FE" fill-rule="evenodd" d="M51 56.45h5.72v5.72H51z" clip-rule="evenodd"/><path fill="#81E650" fill-rule="evenodd" d="M68.17 50.72v5.73h-5.72v-5.73z" clip-rule="evenodd"/><path fill="#00D267" fill-rule="evenodd" d="M62.45 50.72v5.73h-5.73v-5.73z" clip-rule="evenodd"/><path fill="#00C0FF" fill-rule="evenodd" d="M56.72 50.72v5.73H51v-5.73z" clip-rule="evenodd"/><path fill="#FFD200" fill-rule="evenodd" d="M62.45 45h5.72v5.72h-5.72z" clip-rule="evenodd"/><path fill="#FF8E00" fill-rule="evenodd" d="M56.72 45h5.73v5.72h-5.73z" clip-rule="evenodd"/><path fill="#FF5400" fill-rule="evenodd" d="M51 45h5.72v5.72H51z" clip-rule="evenodd"/></svg>