<svg xmlns="http://www.w3.org/2000/svg" width="1200" height="360" fill="none" viewBox="0 0 1200 360"><g clip-path="url(#a)"><path fill="#F4F4F4" d="M0 4a4 4 0 0 1 4-4h1192a4 4 0 0 1 4 4v352a4 4 0 0 1-4 4H4a4 4 0 0 1-4-4z"/><path fill="#05F" d="M878.4 73.92c-2.43-5-.35-11.02 4.65-13.45l74.03-36.06c5-2.44 11.02-.36 13.46 4.64l36.06 74.03c2.43 5 .35 11.02-4.64 13.46l-74.04 36.06c-5 2.43-11.02.35-13.45-4.64z"/><path fill="#05F" fill-rule="evenodd" d="M823.88 133.94a6.94 6.94 0 1 0-13.88 0 6.94 6.94 0 0 0 13.88 0m-10.4 0a3.47 3.47 0 1 1 6.93 0 3.47 3.47 0 0 1-6.94 0z" clip-rule="evenodd"/><path fill="#FF5975" d="M1107.92-94.61a24 24 0 0 1 30.26-15.38l162.1 52.87a24 24 0 0 1 15.37 30.26l-52.86 162.1a24 24 0 0 1-30.26 15.37l-162.1-52.86a24 24 0 0 1-15.37-30.26z"/><path fill="#FF5975" fill-rule="evenodd" d="M830.8 202.8V196h3.4v6.8h6.8v3.4h-6.8v6.8h-3.4v-6.8H824v-3.4z" clip-rule="evenodd"/><path fill="#FFB700" d="M810.5 300.95a24 24 0 0 1 11.08-32.08l240.94-117.36a24 24 0 0 1 32.08 11.07l117.36 240.94a24 24 0 0 1-11.07 32.08L959.95 552.96a24 24 0 0 1-32.09-11.07L810.51 300.95z"/><path fill="#FFB700" fill-rule="evenodd" d="M1156.2 173.2v6.8h-3.4v-6.8h-6.8v-3.4h6.8V163h3.4v6.8h6.8v3.4z" clip-rule="evenodd"/></g><defs><clipPath id="a"><path fill="#fff" d="M0 4a4 4 0 0 1 4-4h1192a4 4 0 0 1 4 4v352a4 4 0 0 1-4 4H4a4 4 0 0 1-4-4z"/></clipPath></defs></svg>