<svg xmlns="http://www.w3.org/2000/svg" fill="none" viewBox="0 0 80 80"><rect width="50.59" height="50.59" x="51.65" y="7.77" fill="#F4F4F4" rx="7.23" transform="rotate(78.96 51.65 7.77)"/><path fill="#B3CCFF" d="M36 36.13v19.12H26V36.13zm14.35-9.57v28.7h-10v-28.7zM64.69 17v38.25h-10V17z"/><path fill="#fff" d="M10.68 50.4h64.26A3.06 3.06 0 0 1 78 53.44v16.83a3.06 3.06 0 0 1-3.06 3.06H10.68a3.06 3.06 0 0 1-3.06-3.06V53.45a3.06 3.06 0 0 1 3.06-3.06z"/><path fill="#F7B500" d="M11.38 51.16h62.86c1.66 0 3 1.28 3 2.85v15.71a2.93 2.93 0 0 1-3 2.86H11.38c-1.65 0-2.99-1.28-2.99-2.86v-15.7a2.93 2.93 0 0 1 3-2.86z"/><path fill="#F7B500" fill-rule="evenodd" d="m74 25.5-.7.7-2.3-2.3V34h-1V23.9l-2.3 2.3-.7-.7 3.5-3.5z" clip-rule="evenodd"/><path fill="#fff" fill-rule="evenodd" d="m29.81 64.64-2.7.94.06-2.86-1.72-2.27 2.73-.83 1.63-2.34 1.63 2.34 2.74.83-1.73 2.27.06 2.86zm-13.01 0-2.69.94.06-2.86-1.73-2.27 2.74-.83 1.63-2.34 1.63 2.34 2.73.83-1.72 2.27.06 2.86-2.7-.94zm39.02 0-2.7.94.06-2.86-1.73-2.27 2.74-.83 1.63-2.34 1.63 2.34 2.73.83-1.72 2.27.06 2.86zm13 0-2.7.94.06-2.86-1.72-2.27 2.73-.83 1.63-2.34 1.63 2.34 2.74.83-1.73 2.27.06 2.86zm-26.01 0-2.7.94.07-2.86-1.73-2.27 2.73-.83 1.63-2.34 1.64 2.34 2.73.83-1.73 2.27.06 2.86z" clip-rule="evenodd"/><path fill="#05F" fill-rule="evenodd" d="m21 31.5-.7.7-2.3-2.3V40h-1V29.9l-2.3 2.3-.7-.7 3.5-3.5zm17-11-.7.7-2.3-2.3V29h-1V18.9l-2.3 2.3-.7-.7 3.5-3.5z" clip-rule="evenodd"/></svg>