<svg xmlns="http://www.w3.org/2000/svg" fill="none" viewBox="0 0 600 520"><g clip-path="url(#a)"><rect width="231.13" height="231.13" x="213.84" y="202" fill="#F2F6FF" rx="21.28" transform="rotate(67.7 213.84 202)"/><rect width="164.77" height="164.77" x="544" y="39" fill="#FAFAFA" rx="21.28" transform="rotate(74.62 544 39)"/><rect width="164.77" height="164.77" x="260.22" y="266" fill="#E5EEFF" rx="21.28" transform="rotate(52.79 260.22 266)"/><path fill="#F4F4F4" stroke="#E8E8E8" d="M73.5 103.5h463v324h-463z"/><path fill="#1A1A1A" fill-rule="evenodd" d="m330.52 320.79 9.63 5.68-2.44 1.62 2.56 3.48-2.43 1.63-2.56-3.48-2.44 1.62z" clip-rule="evenodd"/><path fill="#fff" stroke="#E8E8E8" d="M79.5 172.5h270v254h-270z"/><g filter="url(#b)"><path fill="#fff" d="M74 135h293v30H74z"/><g clip-path="url(#c)"><path fill="#1A1A1A" fill-rule="evenodd" d="m303.19 150.6-.34.34-2.02-2.12 2.02-2.13.34.36-1.46 1.53h3.82a2.84 2.84 0 0 1 0 5.67h-2.36v-.47h2.36a2.36 2.36 0 0 0 0-4.72h-3.82l1.46 1.53z" clip-rule="evenodd"/><rect width="18.43" height="18.43" x="295.39" y="140.78" stroke="#E8E8E8" stroke-width=".47" rx="1.65"/><path fill="#1A1A1A" fill-rule="evenodd" d="M330.18 149.06h-3.83a2.36 2.36 0 1 0 0 4.72h2.36v.47h-2.36a2.84 2.84 0 1 1 0-5.67h3.83l-1.47-1.53.34-.36 2.03 2.13-2.03 2.13-.34-.36z" clip-rule="evenodd"/><rect width="18.43" height="18.43" x="318.08" y="140.78" stroke="#E8E8E8" stroke-width=".47" rx="1.65"/><path fill="#1A1A1A" fill-rule="evenodd" d="m351.81 151.93 2.43 2.42-.37.38-2.43-2.43a3.45 3.45 0 0 1-5.71-2.63 3.46 3.46 0 1 1 6.08 2.26m-2.62.67a2.92 2.92 0 1 0 0-5.85 2.92 2.92 0 0 0 0 5.85" clip-rule="evenodd"/><rect width="18.43" height="18.43" x="340.77" y="140.78" stroke="#E8E8E8" stroke-width=".47" rx="1.65"/></g><g clip-path="url(#d)"><path fill="#F4F4F4" d="M81.56 142.44c0-1.05.85-1.9 1.9-1.9h15.12c1.04 0 1.89.85 1.89 1.9v15.12a1.9 1.9 0 0 1-1.9 1.9H83.46c-1.04 0-1.89-.85-1.89-1.9v-15.12z"/><path fill="#1A1A1A" fill-rule="evenodd" d="m87.7 145.75 1.58 7.23 1.65-1.11 1.74 2.38 1.65-1.1-1.73-2.4 1.65-1.1-6.53-3.9z" clip-rule="evenodd"/><path fill="#F4F4F4" d="M104.25 142.44c0-1.05.85-1.9 1.9-1.9h15.12c1.04 0 1.89.85 1.89 1.9v15.12a1.9 1.9 0 0 1-1.9 1.9h-15.12c-1.04 0-1.89-.85-1.89-1.9z"/><path fill="#1A1A1A" fill-rule="evenodd" d="M113.7 146.7v6.6h1.9v.48h-4.26v-.47h1.9v-6.62h-2.84v1.42h-.48v-1.9h7.1v1.9h-.48v-1.42h-2.84z" clip-rule="evenodd"/></g></g><path fill="#fff" d="M74 104h462v30H74z"/><path fill="#FF46FB" fill-rule="evenodd" d="M90.03 121.8h4.73v4.73h-4.73z" clip-rule="evenodd"/><path fill="#CA41FC" fill-rule="evenodd" d="M85.3 121.8h4.73v4.73h-4.72v-4.73z" clip-rule="evenodd"/><path fill="#8B48FE" fill-rule="evenodd" d="M80.58 121.8h4.73v4.73h-4.73z" clip-rule="evenodd"/><path fill="#81E650" fill-rule="evenodd" d="M94.76 117.08h-4.73v4.72h4.73z" clip-rule="evenodd"/><path fill="#00D267" fill-rule="evenodd" d="M90.03 117.08h-4.72v4.72h4.72z" clip-rule="evenodd"/><path fill="#00C0FF" fill-rule="evenodd" d="M85.3 117.08h-4.72v4.72h4.73v-4.72z" clip-rule="evenodd"/><path fill="#FFD200" fill-rule="evenodd" d="M90.03 112.35h4.73v4.73h-4.73z" clip-rule="evenodd"/><path fill="#FF8E00" fill-rule="evenodd" d="M85.3 112.35h4.73v4.73h-4.72v-4.73z" clip-rule="evenodd"/><path fill="#FF5400" fill-rule="evenodd" d="M80.58 112.35h4.73v4.73h-4.73z" clip-rule="evenodd"/><path fill="#212121" d="M100.33 115.79c-.25 0-.48-.05-.7-.13-.2-.1-.4-.22-.55-.38a1.8 1.8 0 0 1-.37-.6c-.1-.24-.14-.51-.14-.81s.05-.58.14-.81c.1-.24.22-.45.37-.61a1.58 1.58 0 0 1 1.76-.4c.19.08.34.2.46.35.13.15.22.33.29.54a2.4 2.4 0 0 1 .07 1.07h-2.48c.03.4.15.7.37.94.22.22.5.34.86.34.17 0 .34-.03.48-.08.15-.05.3-.12.43-.2l.22.4c-.16.1-.34.19-.54.26-.2.08-.42.12-.67.12m-1.15-2.23h1.96q0-.555-.24-.84a.8.8 0 0 0-.67-.3 1 1 0 0 0-.37.08 1 1 0 0 0-.32.22q-.15.15-.24.36t-.12.48m4.7 2.23a2.37 2.37 0 0 1-1.74-.74l.38-.44c.18.2.38.34.62.46.24.11.5.17.75.17.33 0 .58-.08.76-.22a.73.73 0 0 0 .27-.6.7.7 0 0 0-.06-.31.6.6 0 0 0-.18-.23 1 1 0 0 0-.25-.17l-.33-.16-.71-.31a3 3 0 0 1-.36-.18 1.5 1.5 0 0 1-.32-.26c-.1-.1-.17-.22-.23-.35a1.22 1.22 0 0 1 .02-1c.08-.17.19-.31.32-.43.14-.12.3-.21.5-.27a1.94 1.94 0 0 1 1.45.07c.25.11.46.26.64.44l-.34.4a1.7 1.7 0 0 0-.5-.33 1.4 1.4 0 0 0-.63-.13c-.27 0-.5.06-.67.2a.63.63 0 0 0-.25.52c0 .13.02.23.07.31s.11.16.2.22a1.9 1.9 0 0 0 .55.3l.7.3c.15.06.28.13.4.21q.195.12.33.27c.1.1.16.23.21.37a1.3 1.3 0 0 1-.04 1.03q-.105.255-.33.45c-.14.13-.32.23-.53.3-.2.07-.44.1-.7.1zm2.6-.09v-3.68h.62v3.68zm.32-4.43a.46.46 0 0 1-.3-.12.38.38 0 0 1-.13-.28c0-.13.04-.22.12-.3a.46.46 0 0 1 .31-.1c.12 0 .22.03.3.1.09.08.13.18.13.3 0 .11-.04.2-.13.28a.43.43 0 0 1-.3.12m2.78 6.12c-.22 0-.43-.02-.62-.07-.18-.04-.34-.1-.48-.19a1 1 0 0 1-.31-.3.83.83 0 0 1 .04-.88c.1-.14.23-.27.4-.38v-.03a.8.8 0 0 1-.24-.23.7.7 0 0 1-.1-.37c0-.16.05-.3.14-.4.08-.12.17-.21.27-.28v-.03a1.6 1.6 0 0 1-.34-.4c-.1-.17-.14-.37-.14-.6 0-.2.04-.37.1-.54a1.3 1.3 0 0 1 .74-.67 1.62 1.62 0 0 1 1.07 0h1.27v.48h-.75c.08.08.15.2.2.32a1 1 0 0 1 .1.44c0 .2-.04.37-.1.53-.08.16-.17.3-.3.4a1.47 1.47 0 0 1-1.23.31c-.1-.02-.18-.06-.27-.1a.8.8 0 0 0-.16.2.43.43 0 0 0-.07.24c0 .12.04.21.13.29.1.08.27.11.52.11h.7c.44 0 .76.07.97.21.22.14.32.36.32.67 0 .17-.04.33-.13.48-.08.16-.2.3-.37.41-.16.12-.35.2-.58.27-.23.08-.49.11-.78.11m0-3.27a.72.72 0 0 0 .55-.24.8.8 0 0 0 .17-.27c.04-.11.06-.23.06-.37 0-.27-.07-.48-.22-.63a.75.75 0 0 0-.56-.22c-.21 0-.4.07-.55.22s-.22.36-.22.63c0 .14.02.26.06.37.04.1.1.2.16.27.08.08.16.14.25.18q.15.06.3.06m.1 2.84a1.56 1.56 0 0 0 .84-.23q.15-.105.24-.24a.53.53 0 0 0 .08-.28c0-.17-.06-.29-.19-.35-.13-.07-.31-.1-.55-.1h-.64a2 2 0 0 1-.47-.06 1 1 0 0 0-.29.3c-.06.1-.1.21-.1.32 0 .2.1.35.29.47.19.11.45.17.78.17zm2.47-1.26v-3.68h.52l.05.53h.02c.18-.17.36-.32.56-.44s.42-.18.68-.18c.38 0 .67.12.84.36.18.25.28.6.28 1.08v2.33h-.63v-2.25c0-.35-.05-.6-.16-.75s-.29-.23-.53-.23a.9.9 0 0 0-.5.14c-.15.1-.32.24-.5.42v2.67z"/><path fill="#757575" d="M98.57 126.18v-4.34h1.09c.67 0 1.17.19 1.52.55.35.38.53.9.53 1.6 0 .34-.05.65-.14.93a1.75 1.75 0 0 1-1.03 1.12c-.24.1-.53.14-.86.14zm.55-.45h.5c.5 0 .88-.15 1.13-.46.26-.3.39-.73.39-1.28s-.13-.97-.39-1.26c-.25-.3-.63-.44-1.13-.44h-.5zm4.72.53a1.47 1.47 0 0 1-1.04-.44 1.7 1.7 0 0 1-.45-1.24 2 2 0 0 1 .12-.72c.08-.2.2-.39.33-.53a1.4 1.4 0 0 1 1.04-.44 1.43 1.43 0 0 1 1.36.97c.08.21.13.45.13.72 0 .26-.05.5-.13.71a1.4 1.4 0 0 1-1.36.97m0-.45c.13 0 .26-.03.38-.09a.9.9 0 0 0 .29-.25c.08-.1.14-.24.19-.39.04-.15.06-.32.06-.5 0-.19-.02-.35-.06-.5a1.2 1.2 0 0 0-.2-.4.8.8 0 0 0-.28-.25.8.8 0 0 0-.38-.1.86.86 0 0 0-.67.34c-.09.12-.15.25-.2.4-.04.16-.06.32-.06.5 0 .2.02.36.07.51.04.15.1.28.18.4q.135.15.3.24c.12.06.24.09.38.09m3.6.45c-.2 0-.4-.04-.6-.11a1.4 1.4 0 0 1-.48-.33 1.7 1.7 0 0 1-.31-.53 2.13 2.13 0 0 1 .01-1.43c.08-.2.2-.39.34-.53a1.44 1.44 0 0 1 1.08-.44c.21 0 .4.03.55.1.14.08.28.17.4.27l-.29.36a1 1 0 0 0-.3-.2.7.7 0 0 0-.34-.09.9.9 0 0 0-.4.1.9.9 0 0 0-.32.25 1.3 1.3 0 0 0-.21.4c-.05.15-.07.31-.07.5 0 .18.02.35.07.5s.11.28.2.4c.09.1.2.18.31.24a.95.95 0 0 0 .82 0c.13-.07.24-.15.34-.23l.24.36a1.5 1.5 0 0 1-1.04.41m2.69 0c-.34 0-.6-.1-.75-.32a1.58 1.58 0 0 1-.24-.94v-2.04h.55v1.97c0 .3.05.52.14.66.1.13.25.2.46.2.17 0 .32-.04.45-.13.13-.08.27-.22.42-.41v-2.29h.54v3.22h-.45l-.04-.5h-.02q-.225.255-.48.42c-.16.1-.36.16-.58.16m2.66-.08v-3.22h.45l.04.47h.02c.14-.16.3-.29.46-.39a1 1 0 0 1 .54-.16.9.9 0 0 1 .58.17c.14.1.24.26.3.45.18-.19.34-.33.51-.44a1 1 0 0 1 .56-.17c.33 0 .57.1.73.31s.25.53.25.94v2.04h-.55v-1.97c0-.3-.05-.52-.14-.65-.1-.14-.25-.2-.45-.2-.24 0-.51.16-.8.5v2.32h-.55v-1.97c0-.3-.05-.52-.15-.65-.1-.14-.25-.2-.45-.2-.25 0-.51.16-.81.5v2.32zm6.79.08c-.22 0-.42-.04-.61-.11a1.6 1.6 0 0 1-.5-.34 1.6 1.6 0 0 1-.32-.52c-.08-.21-.12-.45-.12-.71 0-.27.04-.5.12-.7.09-.22.2-.4.33-.55a1.4 1.4 0 0 1 1.54-.34c.16.07.3.17.4.3.11.14.2.3.25.48a2.1 2.1 0 0 1 .07.93h-2.17c.02.35.13.62.32.82.2.2.44.3.75.3q.24 0 .42-.06c.14-.05.26-.11.38-.19l.2.36c-.15.09-.3.16-.48.23-.17.07-.36.1-.58.1m-1.02-1.95h1.72c0-.32-.07-.57-.2-.74a.7.7 0 0 0-.6-.25.9.9 0 0 0-.32.06 1.07 1.07 0 0 0-.49.5 1.5 1.5 0 0 0-.1.43zm2.99 1.87v-3.22h.45l.05.47h.02c.15-.16.32-.29.48-.39.17-.1.37-.16.6-.16.34 0 .58.11.74.32s.24.53.24.94v2.04h-.55v-1.97c0-.3-.04-.52-.14-.65-.1-.14-.25-.2-.46-.2a.8.8 0 0 0-.45.12c-.13.08-.27.2-.43.37v2.33zm4.63.08a1.1 1.1 0 0 1-.43-.08.8.8 0 0 1-.29-.22.9.9 0 0 1-.15-.34 2 2 0 0 1-.05-.43v-1.78h-.47V123l.5-.04.07-.9h.45v.9h.87v.45h-.87v1.78c0 .2.04.36.1.47.08.1.21.16.4.16a.7.7 0 0 0 .18-.03l.18-.06.1.41a2.4 2.4 0 0 1-.59.12m1.56 0a.4.4 0 0 1-.29-.11.42.42 0 0 1-.11-.3c0-.13.04-.23.11-.3a.4.4 0 0 1 .29-.13c.1 0 .2.05.27.12a.4.4 0 0 1 .12.3.4.4 0 0 1-.12.3.37.37 0 0 1-.27.12m1.36 1.27v-4.57h.45l.04.38h.03c.14-.13.3-.23.47-.32.18-.1.36-.13.55-.13.2 0 .4.03.55.11.16.08.3.19.4.33.1.15.18.32.23.52a2.44 2.44 0 0 1-.02 1.41c-.08.21-.18.4-.3.54-.13.15-.28.27-.45.35-.17.07-.34.1-.53.1-.15 0-.3-.02-.45-.1-.14-.06-.3-.15-.44-.26l.01.56v1.08zm1.33-1.73a.78.78 0 0 0 .65-.33c.09-.11.15-.25.2-.4a2.3 2.3 0 0 0 .03-1.02 1 1 0 0 0-.16-.38.7.7 0 0 0-.27-.24.8.8 0 0 0-.38-.09.9.9 0 0 0-.41.11q-.21.12-.45.33v1.69c.15.12.29.2.43.26.13.05.25.07.36.07m3.44.46c-.4 0-.73-.15-.98-.44-.23-.29-.35-.7-.35-1.24a1.73 1.73 0 0 1 .42-1.24c.13-.14.28-.26.44-.34a1.22 1.22 0 0 1 1.02-.02c.13.07.27.16.41.27l-.02-.54v-1.24h.54v4.7h-.44l-.05-.37h-.02c-.13.13-.28.23-.44.33a1.1 1.1 0 0 1-.53.13m.12-.46c.15 0 .29-.03.42-.1.13-.08.26-.2.4-.34v-1.68a1.3 1.3 0 0 0-.4-.26 1 1 0 0 0-.38-.08.75.75 0 0 0-.37.1.9.9 0 0 0-.29.25c-.08.1-.15.23-.2.38s-.07.32-.07.5c0 .39.08.7.23.9.16.22.37.33.66.33m2.54.38v-2.77h-.44V123l.44-.04v-.5c0-.34.07-.6.22-.79.16-.19.4-.28.72-.28.1 0 .2.01.28.03.1.02.18.05.26.08l-.12.41a.9.9 0 0 0-.37-.08q-.45 0-.45.63v.5h.68v.45h-.68v2.77z"/><path fill="#fff" d="M368 135h168v292H368z"/><path fill="#1A1A1A" d="M379.22 151.63v-4.88h1.2l.8 2.17a10 10 0 0 1 .28.9h.03c.05-.16.1-.3.13-.45l.14-.45.77-2.17h1.2v4.88h-1v-1.8a6 6 0 0 1 .05-.82 62 62 0 0 1 .1-.83h-.04l-.4 1.16-.7 1.86h-.6l-.7-1.86-.38-1.16h-.03a19 19 0 0 1 .14 1.66v1.79zm6.02 1.45a1.6 1.6 0 0 1-.52-.08l.2-.84a2 2 0 0 0 .24.05c.19 0 .33-.05.43-.14.1-.08.17-.2.22-.35l.06-.2-1.43-3.6h1.1l.53 1.59a9 9 0 0 1 .3 1.05h.03l.12-.52.13-.53.45-1.6h1.05l-1.28 3.75c-.1.24-.19.44-.29.62s-.2.32-.33.44a1.2 1.2 0 0 1-.44.27q-.24.09-.57.09m6.08-1.36c-.24 0-.5-.05-.75-.15a2.3 2.3 0 0 1-.67-.37l.5-.69q.255.195.48.3c.16.06.31.09.48.09.16 0 .28-.03.35-.08a.27.27 0 0 0 .12-.23.22.22 0 0 0-.07-.16.6.6 0 0 0-.17-.14 11 11 0 0 1-.86-.37 1.16 1.16 0 0 1-.55-.52.9.9 0 0 1-.09-.42 1.05 1.05 0 0 1 .39-.84c.12-.1.27-.17.45-.23.17-.06.37-.09.58-.09q.435 0 .75.15c.21.1.4.2.56.33l-.5.65c-.13-.1-.26-.17-.39-.23a1 1 0 0 0-.39-.08q-.42 0-.42.3 0 .075.06.15c.04.04.1.08.16.11a3.3 3.3 0 0 0 .5.2 3.2 3.2 0 0 1 .68.37.95.95 0 0 1 .33.75 1.07 1.07 0 0 1-.39.85c-.13.1-.29.2-.48.26s-.4.09-.66.09m2.23-.09v-3.72h1.1v3.72zm.55-4.26a.67.67 0 0 1-.46-.16.55.55 0 0 1-.18-.42c0-.17.06-.3.18-.4.12-.11.27-.17.46-.17s.34.06.45.16c.12.1.18.24.18.41q0 .255-.18.42a.65.65 0 0 1-.45.16m2.84 5.83c-.22 0-.42-.02-.61-.05a1.8 1.8 0 0 1-.5-.17.9.9 0 0 1-.32-.3.75.75 0 0 1-.13-.42q0-.45.54-.75v-.03a.69.69 0 0 1-.34-.63c0-.13.03-.26.11-.38s.18-.23.3-.31v-.03a1.13 1.13 0 0 1-.5-.97c0-.22.04-.41.13-.58.08-.17.2-.3.33-.42.15-.11.31-.2.5-.25a2 2 0 0 1 1.15 0h1.35v.8h-.59c.04.06.07.13.09.22a1.3 1.3 0 0 1-.08.84 1.1 1.1 0 0 1-.31.38c-.13.1-.29.18-.47.23-.17.05-.36.07-.57.07-.14 0-.29-.02-.44-.07a.4.4 0 0 0-.11.12.35.35 0 0 0-.03.15q0 .15.12.21c.08.05.23.07.44.07h.6a2 2 0 0 1 1.05.22q.36.225.36.72c0 .2-.05.37-.14.53-.1.17-.24.3-.42.42s-.4.22-.65.28c-.25.07-.54.1-.86.1m.08-3.41c.15 0 .27-.05.36-.16.1-.1.15-.26.15-.47 0-.2-.05-.34-.15-.44a.46.46 0 0 0-.36-.16.5.5 0 0 0-.36.16c-.1.1-.15.24-.15.44 0 .21.05.37.15.47s.22.16.36.16m.1 2.73c.24 0 .45-.05.6-.14.17-.08.25-.2.25-.32s-.05-.2-.15-.23q-.15-.06-.42-.06h-.38a2.7 2.7 0 0 1-.53-.05c-.13.12-.2.25-.2.37 0 .14.08.24.22.31q.24.12.6.12zm2.49-.89v-3.72h.9l.08.48h.03c.16-.15.33-.28.52-.4.19-.1.41-.17.67-.17.4 0 .7.14.87.4.19.27.28.63.28 1.1v2.3h-1.1v-2.16c0-.27-.04-.45-.11-.55s-.19-.15-.35-.15a.64.64 0 0 0-.36.1c-.1.06-.2.14-.33.26v2.5h-1.1zm5.22.09c-.17 0-.32-.03-.46-.1a1 1 0 0 1-.57-.59 1.3 1.3 0 0 1-.08-.44c0-.39.17-.69.5-.91s.86-.37 1.6-.44a.6.6 0 0 0-.16-.39c-.08-.1-.23-.15-.43-.15q-.24 0-.48.09a3.6 3.6 0 0 0-.5.25l-.4-.73c.24-.14.49-.26.75-.35s.54-.14.84-.14c.48 0 .84.14 1.09.42.25.27.38.69.38 1.26v2.13h-.9l-.07-.39h-.03c-.16.14-.33.26-.5.35a1.3 1.3 0 0 1-.58.13m.38-.86a.6.6 0 0 0 .32-.08c.09-.06.18-.13.28-.23v-.65c-.39.05-.66.13-.8.24-.16.1-.23.23-.23.37 0 .12.04.21.11.27.08.06.19.08.32.08m3.93.86a1.5 1.5 0 0 1-.6-.1 1.07 1.07 0 0 1-.61-.75 2.4 2.4 0 0 1-.07-.6v-1.5h-.5v-.81l.56-.05.13-.98h.91v.98h.89v.87h-.89v1.48c0 .21.04.37.13.46s.2.13.35.13a1.2 1.2 0 0 0 .35-.07l.17.8-.35.1c-.13.02-.3.03-.47.03zm2.55 0c-.4 0-.7-.14-.88-.4a1.93 1.93 0 0 1-.27-1.1v-2.3h1.1v2.16c0 .27.04.45.11.55s.2.15.35.15a.6.6 0 0 0 .35-.1c.1-.06.2-.17.31-.31v-2.46h1.1v3.72h-.9l-.08-.52h-.02c-.16.19-.34.34-.52.45-.18.1-.4.16-.65.16m3.14-.09v-3.72h.9l.07.66h.03c.13-.26.3-.45.49-.57a1.05 1.05 0 0 1 .82-.15.7.7 0 0 1 .19.05l-.18.95a1.3 1.3 0 0 0-.4-.06.8.8 0 0 0-.45.15c-.15.1-.27.28-.37.53v2.16zm4.57.09c-.27 0-.51-.05-.74-.13a1.8 1.8 0 0 1-.6-.38 1.8 1.8 0 0 1-.4-.62c-.1-.24-.14-.51-.14-.82a2.1 2.1 0 0 1 .54-1.42 1.74 1.74 0 0 1 1.21-.53c.26 0 .5.05.69.14.2.09.36.21.5.37q.195.24.3.57a2.4 2.4 0 0 1 .04 1.2h-2.22c.05.26.16.46.33.59s.39.19.64.19c.26 0 .53-.09.8-.25l.36.67a2.43 2.43 0 0 1-1.31.41zm-.83-2.35h1.34a.84.84 0 0 0-.14-.51c-.1-.13-.25-.2-.48-.2a.7.7 0 0 0-.46.18.87.87 0 0 0-.26.53m4.13 2.35c-.24 0-.5-.05-.75-.15-.26-.1-.48-.22-.67-.37l.5-.69c.16.13.33.23.48.3.15.06.31.09.47.09s.28-.03.36-.08a.27.27 0 0 0 .11-.23.22.22 0 0 0-.06-.16.6.6 0 0 0-.18-.14 13 13 0 0 1-.86-.37 1.16 1.16 0 0 1-.55-.52.9.9 0 0 1-.08-.42 1.04 1.04 0 0 1 .39-.84c.12-.1.27-.17.44-.23.18-.06.37-.09.59-.09q.42 0 .75.15c.21.1.4.2.56.33l-.5.65c-.13-.1-.26-.17-.4-.23a1 1 0 0 0-.38-.08q-.42 0-.42.3 0 .075.06.15c.04.04.1.08.16.11a3.5 3.5 0 0 0 .5.2 3 3 0 0 1 .68.37.93.93 0 0 1 .33.75 1.07 1.07 0 0 1-.39.85c-.13.1-.3.2-.48.26q-.285.09-.66.09"/><rect width="145.44" height="32.74" x="379.46" y="157.18" fill="#F4F4F4" stroke="#E8E8E8" stroke-width=".47" rx="1.64"/><path fill="#FFB700" d="M379.22 157.88c0-.52.42-.93.94-.93h.64v33.2h-.64a.94.94 0 0 1-.94-.94z"/><path fill="#1A1A1A" fill-rule="evenodd" d="M391.85 170.27h-1.4v1.4h1.4zm2.34 0h-1.4v1.4h1.4zm0 2.34h-1.4v1.4h1.4zm-1.4 2.34h1.4v1.4h-1.4zm-2.35-2.34h1.4v1.4h-1.4zm1.4 2.34h-1.4v1.4h1.4zm124.03-4.75v1.4h1.87v.47h-.97l-.37 5.62h-4.8l-.38-5.62h-.96v-.46h1.87v-1.4h3.74zm.47 1.88h-4.68l.34 5.14h4l.34-5.15zm-2.1.46v4.21h-.48v-4.2h.47zm-1.18 0v4.21h-.46v-4.2h.46zm2.34 0v4.21h-.47v-4.2h.47zm0-1.87h-2.8v.94h2.8z" clip-rule="evenodd"/><path fill="#E8E8E8" d="M502.3 156.95h.48v33h-.47z"/><rect width="145.44" height="33.2" x="379.46" y="194.12" fill="#FAFAFA" stroke="#E8E8E8" stroke-width=".47" rx="1.64"/><path fill="#FFB700" d="M379.22 194.82c0-.51.42-.93.94-.93h.64v34.14h-.64a.93.93 0 0 1-.94-.94z"/><path fill="#1A1A1A" fill-rule="evenodd" d="M391.85 207.69h-1.4v1.4h1.4zm2.34 0h-1.4v1.4h1.4zm0 2.33h-1.4v1.4h1.4zm-1.4 2.34h1.4v1.4h-1.4zm-2.35-2.34h1.4v1.4h-1.4zm1.4 2.34h-1.4v1.4h1.4zm124.03-5.21v1.4h1.87v.47h-.97l-.37 5.61h-4.8l-.38-5.61h-.96v-.47h1.87v-1.4zm.47 1.87h-4.68l.34 5.14h4zm-2.1.47v4.2h-.48v-4.2h.47zm-1.18 0v4.2h-.46v-4.2zm2.34 0v4.2h-.47v-4.2zm0-1.87h-2.8v.93h2.8z" clip-rule="evenodd"/><path fill="#E8E8E8" d="M502.3 193.89h.48v34h-.47z"/><g opacity=".82"><rect width="155.91" height="21.58" x="374" y="399" fill="#05F" rx="1.9"/><path fill="#fff" d="M427.82 412.5h1.12v-1.8h.61l.95 1.8h1.26l-1.13-2c.54-.23.89-.7.89-1.42 0-1.18-.86-1.55-1.91-1.55h-1.79v4.96zm1.12-2.69v-1.39h.58c.58 0 .9.17.9.66 0 .48-.32.73-.9.73zm5.06 2.77c.46 0 .96-.16 1.35-.42l-.38-.68c-.27.17-.53.25-.81.25-.5 0-.88-.25-.98-.8h2.26c.02-.09.04-.3.04-.5 0-1.02-.53-1.8-1.6-1.8-.9 0-1.78.75-1.78 1.98 0 1.24.83 1.97 1.9 1.97m-.83-2.39c.08-.48.38-.71.73-.71.45 0 .63.3.63.71zm3.91 2.31h1.3l1.22-3.78h-1.07l-.5 1.78c-.1.37-.2.77-.28 1.16h-.03l-.3-1.16-.49-1.78h-1.12l1.27 3.77zm3.12 0h1.11v-3.78h-1.12v3.77zm.55-4.34c.38 0 .64-.24.64-.58s-.26-.58-.64-.58-.65.24-.65.58.27.58.65.58m3.23 4.42c.45 0 .95-.16 1.34-.42l-.37-.68c-.28.17-.53.25-.82.25-.5 0-.88-.25-.98-.8h2.26c.02-.09.05-.3.05-.5 0-1.02-.53-1.8-1.6-1.8-.91 0-1.79.75-1.79 1.98 0 1.24.83 1.97 1.91 1.97m-.84-2.39c.08-.48.39-.71.74-.71.44 0 .63.3.63.71zm3.68 2.31h1.27l.34-1.51.19-1.1h.03l.2 1.1.35 1.5h1.3l.91-3.77h-1.03l-.36 1.75c-.07.37-.1.74-.18 1.12h-.03c-.07-.38-.14-.75-.23-1.12l-.43-1.75h-.96l-.42 1.75c-.1.36-.15.74-.22 1.12h-.03l-.17-1.12-.37-1.75h-1.1l.94 3.77zm8.14.08c.62 0 1.14-.19 1.56-.5.42.24.86.42 1.27.5l.26-.9a3 3 0 0 1-.86-.31c.38-.52.65-1.08.83-1.68h-1.01c-.13.47-.32.86-.58 1.19a6 6 0 0 1-1-.9c.52-.36 1.04-.77 1.04-1.41 0-.69-.47-1.13-1.22-1.13-.82 0-1.34.6-1.34 1.3 0 .31.11.67.3 1.03-.48.31-.9.7-.9 1.4 0 .76.57 1.41 1.65 1.41m-.13-3.85c0-.34.2-.55.45-.55.23 0 .34.15.34.39 0 .33-.27.54-.63.76-.1-.2-.16-.41-.16-.6m.27 3c-.44 0-.73-.26-.73-.63 0-.23.13-.42.33-.6.29.37.65.72 1.03 1.03-.2.13-.42.2-.63.2m6.71.85c1.19 0 1.87-.71 1.87-1.53 0-.7-.38-1.1-.98-1.35l-.64-.26c-.42-.17-.75-.28-.75-.58 0-.29.24-.45.63-.45.4 0 .7.14 1.03.4l.57-.71a2.3 2.3 0 0 0-1.6-.66c-1.03 0-1.76.66-1.76 1.48 0 .72.48 1.14 1 1.35l.64.27c.43.19.72.29.72.6 0 .3-.23.48-.7.48a2 2 0 0 1-1.22-.52l-.64.77c.5.47 1.19.71 1.83.71m4.31 0c.45 0 .95-.16 1.34-.42l-.37-.68c-.28.17-.53.25-.82.25-.5 0-.88-.25-.98-.8h2.26c.02-.09.05-.3.05-.5 0-1.02-.54-1.8-1.6-1.8-.91 0-1.79.75-1.79 1.98 0 1.24.83 1.97 1.91 1.97m-.83-2.39c.07-.48.38-.71.73-.71.44 0 .63.3.63.71zm3.08 2.31h1.12v-2.56c.24-.23.42-.36.7-.36.32 0 .46.17.46.71v2.2h1.12v-2.34c0-.94-.35-1.52-1.17-1.52-.51 0-.9.26-1.21.57h-.03l-.08-.48h-.91v3.77zm5.7.08c.36 0 .74-.2 1-.46h.03l.08.37h.91v-5.33h-1.12v1.28l.05.58c-.26-.24-.51-.4-.93-.4-.8 0-1.56.75-1.56 1.99 0 1.23.6 1.97 1.54 1.97m.29-.91c-.44 0-.69-.34-.69-1.08 0-.71.32-1.05.68-1.05.2 0 .43.06.62.24v1.55c-.18.25-.37.34-.61.34"/></g><path stroke="#1A1A1A" stroke-width=".47" d="M412.35 179.17c2-.19 8.59.51 12.85-2.73 1.26-1.12 2.84-2.51.63-3.63-2.2-1.11-4.72 1.95-5.67 4.19-.67 1.58-1.37 5.85 3.03 5.85 1.13 0 3.66-1.95 4.73-3.68s2-5.24 2.32-6.36c1.26 1.68 2.52 4.47 3.78 7.53 1.29 3.15-2.2 2.79-3.15 1.95-.94-.83-1.39-1.9 3.15-6.13 1.76-1.78 2.2-2.51 2.83-3.35.63 2.23 1.51 4.6 4.53 4.83m2.74-2.78c1.57 2.78 2.19 14.7-6 12.47s11.65-16.72 11.65-16.72l-1.27 10.29c.95-3.07 3.4-8.98 5.67-8.09 2.84 1.12.6 5.74 1.67 8.09s2.68 2.35 3.76 2.35"/><path fill="#000" d="M421.18 218.92q.06-.945.57-1.77a9.3 9.3 0 0 1 1.2-1.57c.47-.48.96-.93 1.47-1.33.53-.42.98-.8 1.38-1.16a.7.7 0 0 0-.12-.31 2.3 2.3 0 0 1-.16-.7c0-.57.13-1.1.4-1.56.26-.49.6-.9 1.01-1.22a4.93 4.93 0 0 1 3.07-1.06c.24 0 .43.1.59.27s.28.38.37.63a4.6 4.6 0 0 1 .24 1.41h-.7c0-.14-.01-.29-.05-.45a1 1 0 0 0-.16-.4.8.8 0 0 0-.27-.32.6.6 0 0 0-.41-.14c-.3 0-.63.09-.99.26a4.26 4.26 0 0 0-1.76 1.49 1.8 1.8 0 0 0-.32.98c0 .17.06.3.16.37.12.07.26.12.43.14.19.03.38.04.57.04.2 0 .38.01.55.04a.8.8 0 0 1 .43.14c.12.08.18.2.18.37 0 .1-.01.2-.04.31-.03.1-.1.17-.24.24-.75.2-1.44.43-2.06.7a8.2 8.2 0 0 0-3.04 2.28c-.42.52-.83 1.12-1.24 1.83l-.02.2v.2c0 .46.13.82.4 1.07.27.24.63.36 1.07.36.5 0 1.06-.08 1.67-.24.63-.16 1.24-.33 1.83-.5l1.61-.52c.5-.16.87-.24 1.1-.24-.01.3-.14.57-.37.83-.24.26-.55.5-.92.73a10.95 10.95 0 0 1-5.4 1.2q-.525 0-.9-.24a2.1 2.1 0 0 1-.64-.61 3.4 3.4 0 0 1-.37-.82 3.8 3.8 0 0 1-.12-.93"/><path fill="#000" d="M429.59 217.15c0-.2.01-.43.04-.68.02-.26.08-.5.17-.71.1-.2.22-.39.4-.53s.42-.22.72-.22q0 .255-.06.48a14 14 0 0 0-.24.9 4.8 4.8 0 0 0 .16 1.92c.14.44.33.82.6 1.14a2.98 2.98 0 0 0 2.43 1.02c.23 0 .52-.05.86-.15a11 11 0 0 0 1.97-.8l.6-.32c.3-.16.52-.38.7-.65.16-.29.3-.6.38-.92.1-.34.16-.69.18-1.03.03-.35.04-.66.04-.94 0-.44-.05-.88-.14-1.3a20 20 0 0 0-.27-1.27l-.28-1.26a7 7 0 0 1-.11-1.27c.14-.41.36-.78.66-1.1.32-.34.67-.63 1.06-.87a5.84 5.84 0 0 1 2.64-.84c.35.09.62.2.8.35.18.13.3.28.37.43.08.16.1.31.06.46-.04.14-.1.27-.2.39a1.18 1.18 0 0 0-.56-.63c-.23-.1-.48-.14-.77-.1-.27.04-.56.14-.84.3-.3.15-.57.33-.83.53a4.6 4.6 0 0 0-1.12 1.17c0 .4.04.78.12 1.16a115 115 0 0 1 .55 2.24c.1.37.14.75.14 1.14 0 .94-.15 1.8-.45 2.6a5.53 5.53 0 0 1-3.3 3.27c-.79.3-1.67.45-2.65.45a3.56 3.56 0 0 1-2.85-1.35 5.12 5.12 0 0 1-.98-3z"/><path fill="#F4F4F4" d="M100.14 200.1c0-1.16.94-2.1 2.1-2.1h167.42a2.1 2.1 0 0 1 0 4.2H102.24a2.1 2.1 0 0 1-2.1-2.1m0 11.22c0-1.16.94-2.1 2.1-2.1h186.13a2.1 2.1 0 0 1 0 4.2H102.24a2.1 2.1 0 0 1-2.1-2.1m0 12.16c0-1.16.94-2.1 2.1-2.1h134.69a2.1 2.1 0 0 1 0 4.2H102.24a2.1 2.1 0 0 1-2.1-2.1m0 35.54c0-1.16.94-2.1 2.1-2.1H321.1a2.1 2.1 0 0 1 0 4.2H102.24a2.1 2.1 0 0 1-2.1-2.1m0 9.83c0-1.17.94-2.1 2.1-2.1h209.5a2.1 2.1 0 0 1 0 4.2h-209.5a2.1 2.1 0 0 1-2.1-2.1m0 9.82c0-1.17.94-2.1 2.1-2.1h214.19a2.1 2.1 0 0 1 0 4.2H102.24a2.1 2.1 0 0 1-2.1-2.1m0 9.82c0-1.17.94-2.1 2.1-2.1h214.19a2.1 2.1 0 0 1 0 4.2H102.24a2.1 2.1 0 0 1-2.1-2.1m0 9.81c0-1.16.94-2.1 2.1-2.1H302.4a2.1 2.1 0 1 1 0 4.21H102.24a2.1 2.1 0 0 1-2.1-2.1zm0 9.83c0-1.16.94-2.1 2.1-2.1H302.4a2.1 2.1 0 1 1 0 4.2H102.24a2.1 2.1 0 0 1-2.1-2.1m0 9.82c0-1.16.94-2.1 2.1-2.1H302.4a2.1 2.1 0 1 1 0 4.2H102.24a2.1 2.1 0 0 1-2.1-2.1m0 9.82c0-1.16.94-2.1 2.1-2.1H302.4a2.1 2.1 0 1 1 0 4.2H102.24a2.1 2.1 0 0 1-2.1-2.1m0 23.85c0-1.16.94-2.1 2.1-2.1h92.6a2.1 2.1 0 1 1 0 4.2h-92.6a2.1 2.1 0 0 1-2.1-2.1m0 9.82c0-1.16.94-2.1 2.1-2.1h92.6a2.1 2.1 0 0 1 0 4.2h-92.6a2.1 2.1 0 0 1-2.1-2.1"/><rect width="69.21" height="36.01" x="235.29" y="341.56" fill="#FFB700" fill-opacity=".4" rx=".94"/><rect width="68.74" height="35.54" x="235.53" y="341.8" stroke="#FFB700" stroke-dasharray="1.87 1.87" stroke-width=".47" rx=".7"/><path fill="#1A1A1A" fill-rule="evenodd" d="M258.33 354.75c.3 1.18-.26 2.1-1.6 2.75l-.3 1.24a12 12 0 0 1 1.24-.53c.66-.27 1.07-.27 1.03.2-.01.2-.14.4-.47.84l-.03.04-.2.25c-.1.16-.22.31-.33.46l.69-.41c.63-.39 1.12-.59 1.47-.59.44 0 .67.3.66.8l-.47-.02c.01-.24-.04-.3-.2-.3-.24 0-.65.16-1.22.5-.6.38-1.04.63-1.3.76a1.2 1.2 0 0 1-.33.14c-.14.02-.3-.03-.3-.24 0-.09.02-.14.08-.2a48 48 0 0 0 1.04-1.38l.06-.09a6 6 0 0 0 .31-.44c-.08.03-.19.06-.32.12l-.79.32c-.28.13-.53.24-.75.36l-.03.13c-.17.7-.35 1.28-.53 1.78h4.66v.46h-4.86c-.35.76-.74 1.2-1.18 1.34-.34.1-.61.02-.75-.24-.1-.2-.1-.46-.02-.78l.1-.32h-1.71v-.46h1.91a5.5 5.5 0 0 1 2-2.2l.3-1.31c-.5.19-1.09.35-1.75.48l-.1-.46c.8-.16 1.45-.35 1.98-.58.29-1.14.55-1.97.77-2.47.43-.96 1-.95 1.24.05m-3.31 6.95h-.83c-.06.15-.1.3-.14.43-.06.23-.06.39-.02.46.01.03.05.04.2 0 .26-.08.53-.38.79-.89m.7-2a4.6 4.6 0 0 0-1.3 1.54h.81c.17-.42.34-.93.5-1.54zm-2.18-1.27.3.31-.61.62.62.63-.31.31-.63-.62-.62.62-.31-.31.62-.63-.62-.62.31-.31.62.62zm3.98-3.54c-.19.42-.4 1.09-.64 2 .88-.53 1.2-1.2 1-2.03-.13-.55-.1-.55-.36.03" clip-rule="evenodd"/><path fill="#1A1A1A" d="M265.18 361.18a2.05 2.05 0 0 1-1.51-.63l.33-.38c.15.16.33.29.53.39.21.1.43.14.65.14.29 0 .5-.06.66-.19s.24-.3.24-.5c0-.12-.02-.21-.06-.28a.5.5 0 0 0-.15-.2 1 1 0 0 0-.22-.15l-.28-.14-.62-.27-.3-.15c-.11-.06-.2-.14-.29-.23a1.1 1.1 0 0 1-.2-.3 1.1 1.1 0 0 1-.08-.42 1.04 1.04 0 0 1 .38-.81c.12-.11.26-.19.43-.25.16-.05.34-.08.54-.08a1.75 1.75 0 0 1 1.27.53l-.3.35a1.5 1.5 0 0 0-.44-.3 1.25 1.25 0 0 0-.53-.1.93.93 0 0 0-.59.17.54.54 0 0 0-.21.45c0 .1.02.2.06.27s.1.14.17.2a4 4 0 0 0 .48.26l.61.25c.12.05.24.11.35.18a1.1 1.1 0 0 1 .46.55 1.1 1.1 0 0 1-.03.89c-.06.15-.16.28-.29.4-.12.1-.28.2-.45.26-.18.06-.39.09-.61.09m2.25-.08v-3.18h.54v3.18zm.27-3.84c-.1 0-.19-.03-.26-.1a.32.32 0 0 1-.1-.24c0-.1.03-.19.1-.25.07-.07.16-.1.26-.1s.2.03.27.1a.3.3 0 0 1 .1.25c0 .1-.03.18-.1.25a.37.37 0 0 1-.27.1zm2.41 5.31c-.2 0-.37-.02-.53-.06a1.3 1.3 0 0 1-.42-.16.9.9 0 0 1-.27-.27.72.72 0 0 1 .03-.76c.08-.12.2-.23.34-.33v-.03a.7.7 0 0 1-.2-.2.6.6 0 0 1-.08-.31c0-.14.04-.26.11-.36a1 1 0 0 1 .24-.23v-.03c-.1-.09-.2-.2-.29-.35a1.03 1.03 0 0 1-.12-.5q0-.27.09-.48a1.15 1.15 0 0 1 .64-.58 1.4 1.4 0 0 1 .92 0h1.1v.41h-.65c.07.08.13.17.18.28.05.12.08.24.08.38 0 .17-.03.32-.1.46a1.04 1.04 0 0 1-.61.56 1.26 1.26 0 0 1-.7.06 1.5 1.5 0 0 1-.23-.09l-.15.16a.37.37 0 0 0-.06.22c0 .1.04.19.12.25.08.07.23.1.45.1h.61c.37 0 .65.06.83.18.2.12.29.31.29.58q0 .225-.12.42c-.07.13-.18.25-.32.35s-.3.18-.5.24-.43.09-.68.09m0-2.84a.63.63 0 0 0 .47-.2.7.7 0 0 0 .16-.24c.03-.1.05-.2.05-.32 0-.23-.07-.41-.2-.54a.65.65 0 0 0-.48-.2.65.65 0 0 0-.47.2c-.13.13-.2.3-.2.54 0 .12.02.23.05.32.04.1.08.17.15.24q.09.105.21.15c.08.03.17.05.26.05m.08 2.46a1.35 1.35 0 0 0 .74-.2.65.65 0 0 0 .2-.2.46.46 0 0 0 .07-.24c0-.15-.05-.25-.16-.31s-.27-.09-.48-.09H270a1.7 1.7 0 0 1-.41-.05.9.9 0 0 0-.25.26.55.55 0 0 0-.08.28c0 .17.08.3.24.4.17.1.4.15.68.15zm2.15-1.09v-3.18h.45l.04.46h.02c.15-.15.31-.28.48-.38s.37-.16.59-.16c.33 0 .58.1.73.31.16.21.24.52.24.94v2.01h-.54v-1.94c0-.3-.05-.52-.15-.65-.1-.14-.24-.2-.45-.2a.8.8 0 0 0-.44.12c-.13.08-.27.2-.43.37v2.3zm4.31.08a.98.98 0 0 1-.66-.24.85.85 0 0 1-.27-.66c0-.35.16-.62.47-.8.3-.19.8-.32 1.48-.4 0-.1 0-.2-.03-.29a.7.7 0 0 0-.1-.25.5.5 0 0 0-.2-.18.64.64 0 0 0-.32-.07c-.18 0-.36.03-.52.1s-.3.15-.43.24l-.2-.38c.14-.1.32-.19.53-.27.22-.1.45-.14.71-.14.39 0 .67.12.85.36.17.24.26.55.26.95v1.95h-.45l-.04-.38h-.02c-.16.13-.32.24-.5.33-.17.09-.36.13-.56.13m.16-.43c.15 0 .3-.04.43-.1.14-.08.28-.19.43-.33v-.88c-.26.03-.49.07-.67.12s-.32.1-.44.17a.7.7 0 0 0-.24.23.54.54 0 0 0-.07.28c0 .18.05.31.16.39s.24.12.4.12m3.32.43a1.1 1.1 0 0 1-.43-.08.76.76 0 0 1-.28-.22.9.9 0 0 1-.15-.33 2 2 0 0 1-.05-.43v-1.76h-.47v-.4l.5-.04.06-.9h.45v.9h.86v.44h-.86v1.77c0 .2.04.35.1.45.08.1.21.16.4.16.05 0 .11 0 .18-.03l.18-.05.1.4a2.2 2.2 0 0 1-.59.12m2.14 0c-.34 0-.59-.1-.75-.31-.15-.21-.22-.52-.22-.93v-2.02h.54v1.94c0 .3.05.52.14.66.1.13.25.2.45.2.17 0 .32-.05.44-.13.13-.09.27-.22.42-.41v-2.26h.54v3.18h-.45l-.04-.5h-.02c-.15.18-.3.32-.47.42-.16.1-.36.16-.58.16m2.63-.08v-3.18h.45l.04.57h.02c.11-.2.24-.36.4-.47a.85.85 0 0 1 .85-.11l-.1.47-.15-.04a.73.73 0 0 0-.59.15c-.14.1-.27.3-.38.57v2.04zm3.5.08c-.21 0-.42-.04-.6-.11a1.5 1.5 0 0 1-.49-.33 1.6 1.6 0 0 1-.32-.52c-.08-.2-.12-.44-.12-.7s.04-.5.12-.7c.08-.21.2-.39.32-.53a1.38 1.38 0 0 1 1.53-.35c.16.07.3.18.4.3.1.14.19.3.25.48a2.06 2.06 0 0 1 .06.92h-2.15c.03.34.13.61.32.81s.44.3.74.3c.16 0 .3-.02.42-.07.13-.05.26-.1.38-.18l.19.35c-.14.09-.3.17-.47.23-.17.07-.36.1-.58.1m-1-1.93h1.7c0-.32-.07-.56-.21-.73a.7.7 0 0 0-.58-.25.8.8 0 0 0-.32.06c-.1.05-.2.11-.28.2-.08.08-.15.18-.2.3-.06.13-.1.27-.11.43z"/><rect width="46.76" height="28.06" x="87.51" y="389.73" fill="#FFB700" fill-opacity=".2" rx=".94"/><rect width="46.3" height="27.59" x="87.75" y="389.97" stroke="#FFB700" stroke-dasharray="1.87 1.87" stroke-width=".47" rx=".7"/><path fill="#1A1A1A" d="M98.38 404.04c.27-.04.5-.06.73-.06l-.06-1.3c-.09.16-.22.42-.38.77zm1.68 2c.02.06 0 .12-.04.17a.5.5 0 0 1-.19.12.5.5 0 0 1-.21.05c-.11 0-.17-.03-.19-.1-.13-.54-.23-1.17-.3-1.9-.33-.01-.67.02-1 .09l-.98 1.62c-.03.05-.1.1-.19.13a.8.8 0 0 1-.27.05c-.1 0-.15-.02-.15-.08 0-.02 0-.05.02-.07l.83-1.44-.1.03a.5.5 0 0 1-.16.04.17.17 0 0 1-.11-.04.1.1 0 0 1-.05-.08c0-.04.02-.08.06-.11a.4.4 0 0 1 .15-.11l.47-.19c.2-.34.42-.74.65-1.18a17 17 0 0 1 .7-1.23v-.03c0-.06.05-.12.14-.18.1-.05.2-.08.3-.08.11 0 .17.05.18.13l.01.38c.04.9.08 1.66.13 2.28.06.61.16 1.2.3 1.74zm.51.08a.1.1 0 0 1-.03-.07c0-.03.02-.06.04-.1a.4.4 0 0 1 .05-.1.36.36 0 0 1 .18-.12 1 1 0 0 1 .14-.02c.05 0 .1 0 .13.03.04.02.06.06.06.1v.1l.03.04c.02.02.03.05.03.08 0 .06-.04.11-.12.17a.44.44 0 0 1-.24.08l-.12-.03a.23.23 0 0 1-.1-.06.2.2 0 0 1-.05-.1m4.15-.77c.13-.1.23-.2.3-.33.07-.12.1-.25.1-.37a.6.6 0 0 0-.1-.34.95.95 0 0 0-.32-.3 1.9 1.9 0 0 0-1.77-.07c-.1.43-.22 1.08-.39 1.95.48-.01.9-.06 1.24-.13.36-.07.67-.2.94-.41m-.51-3q-.075-.36-.45-.36c-.12 0-.26.02-.41.08l-.3 1.31c.29-.07.55-.19.8-.36.24-.16.37-.36.37-.57zm.73 1.22c.24.1.42.24.56.4.14.18.2.36.2.56a1 1 0 0 1-.19.58c-.3.44-.74.75-1.34.93a6.7 6.7 0 0 1-2.47.25c-.08 0-.13-.03-.13-.07 0-.06.05-.12.14-.19.1-.07.17-.1.23-.12.22-1.16.47-2.33.76-3.52a.6.6 0 0 1-.3 0c-.04-.02-.06-.04-.06-.08s.04-.1.1-.15c.1-.08.22-.16.38-.25l.01-.05c.02-.07.08-.13.17-.18.1-.05.19-.07.28-.07.07 0 .12.01.14.04.2-.05.38-.08.54-.08.4 0 .67.17.79.5.03.08.05.17.05.26 0 .19-.07.37-.21.55-.14.17-.33.33-.56.48.33.01.63.08.91.2zm.86 2.55a.1.1 0 0 1-.02-.07c0-.03.01-.06.04-.1a.4.4 0 0 1 .05-.1.36.36 0 0 1 .17-.12l.15-.02c.05 0 .09 0 .13.03.03.02.05.06.06.1v.1l.03.04c.02.02.02.05.02.08 0 .06-.04.11-.11.17a.43.43 0 0 1-.24.08q-.075 0-.12-.03a.24.24 0 0 1-.1-.06.2.2 0 0 1-.05-.1zm2.94-.07v-4.3h.54v4.3zm1.66 0v-3.18h.45l.05.46h.02c.15-.15.3-.28.47-.38s.37-.16.6-.16c.33 0 .57.1.73.32.15.2.23.52.23.93v2.01h-.53v-1.94c0-.3-.05-.52-.15-.65s-.25-.2-.46-.2a.8.8 0 0 0-.44.12c-.12.08-.27.2-.43.37v2.3h-.53zm3.59 0v-3.18h.53v3.18H114zm.27-3.83a.4.4 0 0 1-.27-.1.33.33 0 0 1-.1-.25c0-.1.03-.19.1-.25a.4.4 0 0 1 .27-.1c.1 0 .2.04.26.1a.3.3 0 0 1 .11.25c0 .1-.03.18-.1.25a.37.37 0 0 1-.27.1m2.34 3.91c-.17 0-.31-.02-.43-.08a.8.8 0 0 1-.28-.21.9.9 0 0 1-.16-.34 2 2 0 0 1-.04-.43v-1.76h-.47v-.4l.5-.04.06-.89h.45v.9h.86v.43h-.86v1.77c0 .2.04.35.1.46.08.1.21.15.4.15a.7.7 0 0 0 .18-.02l.17-.06.1.4a2.2 2.2 0 0 1-.58.12m1.21-.08v-3.18h.54v3.18zm.27-3.83a.4.4 0 0 1-.26-.1.33.33 0 0 1-.1-.25c0-.1.03-.19.1-.25a.4.4 0 0 1 .27-.1c.1 0 .19.04.26.1a.3.3 0 0 1 .1.25c0 .1-.03.18-.1.25a.37.37 0 0 1-.27.1m2.07 3.91a.98.98 0 0 1-.66-.23.85.85 0 0 1-.27-.67c0-.35.16-.62.47-.8.3-.19.8-.32 1.48-.4 0-.1 0-.2-.03-.29a.7.7 0 0 0-.1-.25.5.5 0 0 0-.2-.18.64.64 0 0 0-.32-.07c-.18 0-.35.03-.52.1-.16.07-.3.15-.43.24l-.2-.38c.14-.1.32-.18.53-.27.22-.1.45-.14.71-.14.4 0 .67.12.85.36.17.24.26.56.26.95v1.95h-.45l-.04-.38h-.02c-.15.13-.32.24-.5.33-.17.09-.35.13-.56.13m.16-.43c.15 0 .3-.03.43-.1.14-.08.28-.19.44-.33v-.88c-.27.04-.5.08-.68.13-.18.04-.32.1-.44.17a.7.7 0 0 0-.24.22.54.54 0 0 0-.07.28c0 .18.05.31.16.4.11.07.24.11.4.11m2.98.43c-.2 0-.35-.06-.44-.18a.93.93 0 0 1-.13-.54v-4.02h.54v4.06c0 .09.01.15.04.18.03.04.07.06.1.06h.05a.3.3 0 0 0 .08-.02l.07.41a.5.5 0 0 1-.13.04zm1.93 0a1.8 1.8 0 0 1-1.18-.44l.26-.36c.14.12.28.2.43.28.15.07.32.1.51.1.2 0 .37-.04.47-.14s.16-.21.16-.36a.37.37 0 0 0-.07-.21 1.04 1.04 0 0 0-.4-.28l-.26-.1a5 5 0 0 1-.34-.14 1 1 0 0 1-.52-.44.7.7 0 0 1-.09-.34c0-.13.03-.25.07-.36a.8.8 0 0 1 .22-.28 1 1 0 0 1 .35-.2 1.54 1.54 0 0 1 1.01.03c.17.08.31.16.43.26l-.25.34c-.11-.08-.22-.15-.34-.2a.9.9 0 0 0-.39-.08c-.2 0-.35.05-.44.14-.1.1-.14.2-.14.32 0 .07.02.14.06.2.04.05.09.1.16.14.06.04.13.08.22.11l.27.1.34.14c.11.05.22.1.31.18.1.07.17.16.22.26.06.1.1.23.1.38a.86.86 0 0 1-.3.67 1 1 0 0 1-.37.2c-.15.06-.31.08-.5.08"/><g filter="url(#e)"><path fill="#fff" stroke="#05F" stroke-width=".61" d="M278.26 275.96h124.05v51.55H278.26z"/><path fill="#fff" d="M276.11 273.81h4.91v4.91h-4.9v-4.91z"/><path fill="#05F" d="M276.11 273.81v-.61h-.61v.61zm4.91 0h.62v-.61h-.62zm0 4.91v.62h.62v-.62zm-4.9 0h-.62v.62h.61v-.62zm0-4.3h4.9v-1.22h-4.9zm4.29-.61v4.91h1.23v-4.91zm.61 4.3h-4.9v1.23h4.9zm-4.3.61v-4.91h-1.22v4.91h1.23z"/><path fill="#fff" d="M276.11 324.78h4.91v4.91h-4.9v-4.91z"/><path fill="#05F" d="M276.11 324.78v-.61h-.61v.6h.61zm4.91 0h.62v-.61h-.62v.6zm0 4.91v.62h.62v-.62zm-4.9 0h-.62v.62h.61v-.62zm0-4.3h4.9v-1.22h-4.9zm4.29-.61v4.91h1.23v-4.91zm.61 4.3h-4.9v1.23h4.9zm-4.3.61v-4.91h-1.22v4.91h1.23z"/><path fill="#fff" d="M399.54 324.78h4.91v4.91h-4.9v-4.91z"/><path fill="#05F" d="M399.54 324.78v-.61h-.61v.6h.61zm4.91 0h.62v-.61h-.62v.6zm0 4.91v.62h.62v-.62zm-4.9 0h-.62v.62h.61v-.62zm0-4.3h4.9v-1.22h-4.9zm4.29-.61v4.91h1.23v-4.91zm.61 4.3h-4.9v1.23h4.9zm-4.3.61v-4.91h-1.22v4.91z"/><path fill="#fff" d="M399.54 273.81h4.91v4.91h-4.9v-4.91z"/><path fill="#05F" d="M399.54 273.81v-.61h-.61v.61zm4.91 0h.62v-.61h-.62zm0 4.91v.62h.62v-.62zm-4.9 0h-.62v.62h.61v-.62zm0-4.3h4.9v-1.22h-4.9zm4.29-.61v4.91h1.23v-4.91zm.61 4.3h-4.9v1.23h4.9zm-4.3.61v-4.91h-1.22v4.91z"/><path fill="#05F" d="M394.63 276.27a7.37 7.37 0 1 1 14.74 0 7.37 7.37 0 0 1-14.74 0"/><path fill="#fff" fill-rule="evenodd" d="m402.66 276.27 3.64 3.63-.67.67-3.63-3.64-3.64 3.63-.66-.66 3.64-3.63-3.64-3.64.66-.66 3.64 3.63 3.63-3.63.67.66z" clip-rule="evenodd"/></g><path stroke="#1A1A1A" stroke-width="1.19" d="M288.69 305.04c4.57-.42 19.67 1.15 29.44-6.17 2.88-2.52 6.49-5.67 1.44-8.2-5.05-2.51-10.82 4.42-12.98 9.46-1.54 3.59-3.15 13.23 6.94 13.23 2.56 0 8.36-4.41 10.82-8.32s4.6-11.84 5.31-14.36c2.89 3.78 5.77 10.08 8.66 17 2.95 7.12-5.05 6.31-7.21 4.42-2.17-1.89-3.18-4.29 7.2-13.86 4.05-4.04 5.05-5.67 6.5-7.56 1.44 5.04 3.45 10.4 10.37 10.9m6.26-6.29c3.6 6.3 5.02 33.25-13.73 28.2-18.75-5.04 26.68-37.8 26.68-37.8l-2.9 23.26c2.16-6.93 7.79-20.29 12.98-18.27 6.49 2.52 1.36 12.95 3.82 18.27 2.45 5.32 6.14 5.32 8.6 5.32"/><rect width="39.01" height="39.01" x="512" y="318" fill="#E667E6" rx="4"/><path fill="#fff" fill-rule="evenodd" d="m539.58 328.25-7.58 7.58V338h2.17l7.58-7.58zm-1.08 6.5v11.92h-14.09v-17.34h11.92v-1.08h-13v19.5h16.25v-13zm-12.3 7.97c.2.2.55.2.76 0l2.66-2.66.79 2.1c.12.33.51.46.8.26l1.7-1.13.79 1.32c.14.25.45.33.7.2l2.17-1.07a.54.54 0 1 0-.48-.97l-1.72.86-.83-1.38a.54.54 0 0 0-.76-.17l-1.6 1.06-.84-2.25a.54.54 0 0 0-.9-.19l-3.24 3.25a.54.54 0 0 0 0 .77m-.7 1.78h11.92v1.08H525.5z" clip-rule="evenodd"/><path fill="#FF5975" fill-rule="evenodd" d="M43.51 104.74a.98.98 0 0 1-1.38-1.38l2.07-2.07a.98.98 0 0 1 1.38 1.38zm-6.22-2.07a.98.98 0 1 1 1.38-1.38l2.07 2.07a.98.98 0 1 1-1.38 1.38zm4.83 4.84a.98.98 0 0 1 1.39-1.39l2.07 2.08a.98.98 0 1 1-1.38 1.38zm-4.83 2.07c.38.38 1 .38 1.38 0l2.07-2.07a.98.98 0 0 0-1.38-1.39l-2.07 2.08a.98.98 0 0 0 0 1.38m477 340.09a.98.98 0 0 1 1.38-1.38l2.07 2.07a.98.98 0 0 1-1.38 1.38zm4.84 4.83a.98.98 0 1 1 1.38-1.38l2.07 2.08a.98.98 0 1 1-1.38 1.38l-2.08-2.07zm-4.84 2.08c.38.38 1 .38 1.38 0l2.07-2.07a.98.98 0 0 0-1.38-1.39l-2.07 2.08a.98.98 0 0 0 0 1.38m6.22-4.84a.98.98 0 0 1-1.38-1.38l2.07-2.07a.98.98 0 0 1 1.38 1.38z" clip-rule="evenodd"/><path fill="#FFB700" fill-rule="evenodd" d="M58.2 88.1a3.1 3.1 0 1 1-6.2 0 3.1 3.1 0 0 1 6.2 0m-4.65 0a1.55 1.55 0 1 0 3.1 0 1.55 1.55 0 0 0-3.1 0m518.11 88.62a3.1 3.1 0 1 1-6.2 0 3.1 3.1 0 0 1 6.2 0m-4.65 0a1.55 1.55 0 1 0 3.1 0 1.55 1.55 0 0 0-3.1 0" clip-rule="evenodd"/></g><defs><clipPath id="a"><path fill="#fff" d="M0 0h600v520H0z"/></clipPath><clipPath id="c"><path fill="#fff" d="M295.15 140.55h64.28v18.91h-64.28z"/></clipPath><clipPath id="d"><path fill="#fff" d="M81.56 140.55h41.59v18.91H81.56z"/></clipPath><filter id="b" width="294.89" height="31.89" x="73.05" y="134.06" color-interpolation-filters="sRGB" filterUnits="userSpaceOnUse"><feFlood flood-opacity="0" result="BackgroundImageFix"/><feColorMatrix in="SourceAlpha" values="0 0 0 0 0 0 0 0 0 0 0 0 0 0 0 0 0 0 127 0"/><feOffset/><feGaussianBlur stdDeviation=".47"/><feColorMatrix values="0 0 0 0 0.101961 0 0 0 0 0.101961 0 0 0 0 0.101961 0 0 0 0.2 0"/><feBlend in2="BackgroundImageFix" result="effect1_dropShadow"/><feBlend in="SourceGraphic" in2="effect1_dropShadow" result="shape"/></filter><filter id="e" width="181.26" height="109" x="252.11" y="244.9" color-interpolation-filters="sRGB" filterUnits="userSpaceOnUse"><feFlood flood-opacity="0" result="BackgroundImageFix"/><feColorMatrix in="SourceAlpha" values="0 0 0 0 0 0 0 0 0 0 0 0 0 0 0 0 0 0 127 0"/><feOffset/><feGaussianBlur stdDeviation="12"/><feColorMatrix values="0 0 0 0 0.101961 0 0 0 0 0.101961 0 0 0 0 0.101961 0 0 0 0.2 0"/><feBlend in2="BackgroundImageFix" result="effect1_dropShadow"/><feBlend in="SourceGraphic" in2="effect1_dropShadow" result="shape"/></filter></defs></svg>