<svg xmlns="http://www.w3.org/2000/svg" xmlns:xlink="http://www.w3.org/1999/xlink" fill="none" viewBox="0 0 80 80">
  <defs>
    <path id="a" fill="#9FE6E8" d="M54.83 25.526c-2.447-2.404-6.416-2.369-8.82.078s-2.369 6.415.078 8.82c2.447 2.403 6.415 2.368 8.82-.079 2.403-2.447 2.368-6.415-.079-8.82Z"/>
  </defs>
  <path fill="#FF7761" d="M27.538 53.236a7.553 7.553 0 0 0-10.695.095 7.195 7.195 0 0 0-1.443 2.116L6.337 74.815l19.205-9.404a7.197 7.197 0 0 0 2.09-1.48 7.552 7.552 0 0 0-.094-10.695Z"/>
  <path fill="#FFB700" d="M27.633 63.932a7.195 7.195 0 0 1-2.09 1.48L6.336 74.816l21.201-21.58a7.552 7.552 0 0 1 .095 10.696Z"/>
  <path fill="#7961F2" d="m53.502 47.521-17.495 6.984L39.46 71.01l3.302-1.447c8.537-3.75 13.054-13.019 10.741-22.042Z"/>
  <path fill="#A99AF5" d="M32.866 27.244c-9.062-2.153-18.25 2.526-21.85 11.13L9.629 41.7l16.563 3.16 6.674-17.616Zm41.314-4.362-11.204-5.409-.086-.14-5.748-11.191c11.429-4.45 18.696-3.47 20.305-3.625-.05.847.679 9.682-3.266 20.365Z"/>
  <path fill="#7961F2" d="m62.976 17.473-.086-.14L77.447 2.515c-.05.848.678 9.682-3.267 20.366l-11.204-5.41Z"/>
  <path fill="#EBEBFF" d="M74.181 22.882 57.143 6.142c-10.359 4.046-21.128 12.947-27.166 23.197-.473.824-6.93 11.783-7.347 12.493l1.161 6.74 8.548 8.398 6.76 1.042a1528.816 1528.816 0 0 0 12.39-7.594c10.14-6.22 18.802-17.079 22.692-27.536Z"/>
  <path fill="#CCF" d="M51.489 50.418c-.028.028-7.698 4.756-12.39 7.594l-6.76-1.041-4.273-4.2 37.596-38.258 8.52 8.37C70.292 33.34 61.63 44.198 51.489 50.417Z"/>
  <path fill="#604DBF" d="m39.098 58.012-7.023 4.3-13.62-13.382 4.174-7.098 16.47 16.18Z"/>
  <path fill="#493A91" d="m39.098 58.012-7.023 4.299-6.81-6.69 5.599-5.7 8.234 8.09Z"/>
  <path fill="#604DBF" d="M56.594 23.734c-3.434-3.373-9.004-3.324-12.378.11-3.373 3.433-3.324 9.003.11 12.377 3.434 3.373 9.003 3.324 12.377-.11 3.373-3.433 3.324-9.003-.11-12.377Z"/>
  <use xlink:href="#a"/>
  <mask id="b" width="13" height="14" x="44" y="23" maskUnits="userSpaceOnUse" style="mask-type:alpha">
    <use xlink:href="#a"/>
  </mask>
  <g mask="url(#b)">
    <path fill="#49CFD3" d="M54.908 34.345c-2.404 2.447-6.372 2.482-8.82.078l8.742-8.897c2.447 2.404 2.482 6.372.078 8.819Z"/>
  </g>
  <path stroke="#DED8FF" stroke-linecap="round" stroke-width="2.28" d="M13.576 38.856c3.384-5.523 7.344-8.53 14.285-9.777"/>
  <path stroke="#C9C0FA" stroke-linecap="round" stroke-width="1.14" d="M43.035 30.027a7.501 7.501 0 0 1 7.501-7.501"/>
  <path stroke="#fff" stroke-linecap="round" stroke-width="2.28" d="M31.566 34.195c2.756-4.928 5.882-9.099 9.143-12.603 5.34-5.74 11.04-9.69 16.058-12.245"/>
  <path stroke="#DED8FF" stroke-linecap="round" stroke-width="2.28" d="M66.864 5.713c-1.51.273-3.337.775-5.38 1.543"/>
  <path fill="#87AFFF" d="M27.3 71v2.2h2.198v1.101H27.3v2.201h-1.1v-2.2H24V73.2h2.2V71h1.1Z"/>
  <path fill="#FFB700" fill-rule="evenodd" d="M62 59.2a2.2 2.2 0 1 0 4.4.002 2.2 2.2 0 0 0-4.4-.001Zm3.343 0a1.144 1.144 0 1 1-2.288.002 1.144 1.144 0 0 1 2.288-.001Z" clip-rule="evenodd"/>
  <path fill="#FFB700" d="M19.3 19v2.2h2.198v1.101H19.3v2.201h-1.1v-2.2H16V21.2h2.2V19h1.1Z"/>
  <path fill="#87AFFF" d="M28.169 8.972a.564.564 0 0 1 0-.805.583.583 0 0 1 .816 0L30.2 9.365a.564.564 0 0 1 0 .805.583.583 0 0 1-.816 0L28.17 8.972Zm2.842 2.804a.564.564 0 0 1 0-.805.583.583 0 0 1 .816 0l1.214 1.198a.564.564 0 0 1 0 .805.583.583 0 0 1-.816 0l-1.214-1.198Zm-2.842 1.198c.225.223.59.223.816 0l1.214-1.198a.564.564 0 0 0 0-.805.583.583 0 0 0-.816 0l-1.214 1.198a.564.564 0 0 0 0 .805Zm3.658-2.804a.583.583 0 0 1-.816 0 .564.564 0 0 1 0-.805l1.214-1.198a.583.583 0 0 1 .816 0 .564.564 0 0 1 0 .805l-1.214 1.198Z"/>
</svg>
