<svg xmlns="http://www.w3.org/2000/svg" fill="none" viewBox="0 0 80 80">
  <g clip-path="url(#a)">
    <path fill="#89C4FF" fill-rule="evenodd" d="m69.898 44.176-1.151-.044a28.284 28.284 0 0 0 0-2.177l1.151-.044a29.382 29.382 0 0 1 0 2.265Zm-.175-4.521-1.145.134a27.62 27.62 0 0 0-.337-2.145l1.13-.224c.146.736.264 1.48.352 2.235Zm-.878-4.435-1.11.312c-.196-.7-.42-1.388-.67-2.064l1.082-.4c.26.705.493 1.422.698 2.152Zm-1.565-4.242-1.046.483a27.584 27.584 0 0 0-.988-1.934l1.005-.564a28.9 28.9 0 0 1 1.029 2.015Zm-2.213-3.943-.957.642a27.676 27.676 0 0 0-1.279-1.757l.905-.714a28.85 28.85 0 0 1 1.331 1.83Zm-2.801-3.549-.846.783a27.822 27.822 0 0 0-1.536-1.536l.782-.846a28.98 28.98 0 0 1 1.6 1.6Zm-3.32-3.07-.714.905a27.813 27.813 0 0 0-1.756-1.278l.641-.958c.628.42 1.238.865 1.83 1.332Zm-3.757-2.515-.564 1.005a27.584 27.584 0 0 0-1.934-.987l.483-1.046c.687.317 1.359.66 2.015 1.028Zm-4.105-1.895-.4 1.081a27.451 27.451 0 0 0-2.063-.67l.312-1.11c.729.206 1.446.439 2.15.699Zm-4.352-1.225-.224 1.13a27.42 27.42 0 0 0-2.144-.337l.134-1.144c.754.088 1.499.205 2.234.35Zm-4.49-.527-.044 1.152a28.083 28.083 0 0 0-2.177 0l-.045-1.152a29.382 29.382 0 0 1 2.266 0Zm-4.521.176.134 1.144a27.62 27.62 0 0 0-2.145.337l-.224-1.13a28.74 28.74 0 0 1 2.235-.351Zm-4.435.877.312 1.11c-.7.197-1.388.42-2.064.67l-.4-1.081c.705-.26 1.422-.493 2.152-.699Zm-4.242 1.566.483 1.046c-.659.304-1.304.634-1.934.987l-.564-1.005a28.718 28.718 0 0 1 2.015-1.028Zm-3.943 2.212.642.958c-.603.403-1.189.83-1.757 1.278l-.714-.904a28.894 28.894 0 0 1 1.83-1.332Zm-3.549 2.802a28.98 28.98 0 0 0-1.6 1.6l.847.782a27.892 27.892 0 0 1 1.536-1.536l-.783-.846Zm-3.07 3.32.905.713a27.755 27.755 0 0 0-1.278 1.757l-.958-.642c.42-.627.864-1.237 1.332-1.829Zm-2.515 3.756 1.005.564c-.353.63-.683 1.275-.987 1.934l-1.046-.483a28.7 28.7 0 0 1 1.028-2.015Zm-1.895 4.106 1.08.399a28.081 28.081 0 0 0-.67 2.064l-1.109-.312c.206-.73.439-1.447.699-2.151Zm-1.225 4.351 1.13.224a27.52 27.52 0 0 0-.337 2.145l-1.145-.134c.089-.754.206-1.5.352-2.235Zm-.527 4.49a29.382 29.382 0 0 0 0 2.266l1.152-.044a28.083 28.083 0 0 1 0-2.177l-1.152-.044Zm.175 4.522 1.145-.134a27.9 27.9 0 0 0 .337 2.144l-1.13.224a28.74 28.74 0 0 1-.351-2.234Zm.878 4.435 1.11-.312c.197.7.42 1.388.67 2.064l-1.081.399a28.605 28.605 0 0 1-.699-2.151Zm1.566 4.241 1.046-.483c.304.66.634 1.304.987 1.934l-1.005.564a28.72 28.72 0 0 1-1.028-2.015Zm2.212 3.943.958-.641c.403.603.83 1.189 1.278 1.756l-.904.715a28.865 28.865 0 0 1-1.332-1.83Zm2.802 3.55.846-.783a27.892 27.892 0 0 0 1.536 1.536l-.783.846a29.013 29.013 0 0 1-1.6-1.6Zm3.319 3.07.714-.906a27.64 27.64 0 0 0 1.757 1.279L25.1 67a28.932 28.932 0 0 1-1.829-1.33Zm3.757 2.514.564-1.005c.63.354 1.275.683 1.934.988l-.483 1.046a28.675 28.675 0 0 1-2.015-1.029Zm4.105 1.896.4-1.081c.676.25 1.364.473 2.064.67l-.312 1.11a28.592 28.592 0 0 1-2.152-.7Zm4.352 1.225.224-1.13c.706.139 1.42.252 2.145.336l-.134 1.145c-.754-.088-1.5-.206-2.235-.351Zm4.49.526.045-1.151a28.275 28.275 0 0 0 2.176 0l.045 1.151a29.178 29.178 0 0 1-2.265 0Zm4.522-.175-.134-1.145a26.955 26.955 0 0 0 2.144-.337l.224 1.13c-.735.146-1.48.264-2.234.352Zm4.435-.878-.312-1.11c.7-.196 1.388-.42 2.064-.67l.399 1.082a28.59 28.59 0 0 1-2.151.698Zm4.241-1.565-.483-1.046c.66-.305 1.304-.634 1.934-.988l.564 1.005a28.68 28.68 0 0 1-2.015 1.029ZM57.117 67l-.641-.957c.602-.404 1.188-.83 1.756-1.278l.714.904c-.591.467-1.201.911-1.829 1.331Zm3.55-2.801-.783-.846a27.822 27.822 0 0 0 1.536-1.536l.846.782a29.048 29.048 0 0 1-1.6 1.6Zm3.069-3.32-.905-.714c.449-.567.875-1.153 1.279-1.756l.957.641a28.85 28.85 0 0 1-1.331 1.83Zm2.515-3.757a28.68 28.68 0 0 0 1.029-2.015l-1.046-.483c-.305.66-.634 1.304-.988 1.934l1.005.564Zm1.896-4.105-1.082-.399c.25-.676.474-1.365.67-2.064l1.11.312c-.205.73-.438 1.447-.698 2.151Zm1.225-4.352-1.13-.224c.139-.705.251-1.42.336-2.144l1.145.134a28.74 28.74 0 0 1-.351 2.234Z" clip-rule="evenodd"/>
    <path fill="#D9E5FF" d="M49.694 5a1.96 1.96 0 0 1 1.96 1.96v16.651a1.96 1.96 0 0 1-1.96 1.961H33.043a1.96 1.96 0 0 1-1.96-1.96V6.96A1.96 1.96 0 0 1 33.042 5h16.65Z"/>
    <path fill="#699AFF" fill-rule="evenodd" d="M46.538 18.36c-.036.098-.068.204-.107.309a8.02 8.02 0 0 1-1.376 2.353 3.125 3.125 0 0 1-.378.363 1.49 1.49 0 0 1-.934.387 1.883 1.883 0 0 1-.773-.143c-.18-.072-.358-.155-.541-.224a2.383 2.383 0 0 0-1.76.048c-.208.088-.416.18-.63.252-.245.09-.509.115-.766.071a1.474 1.474 0 0 1-.613-.289 3.206 3.206 0 0 1-.606-.604 8.285 8.285 0 0 1-1.716-3.585 6.513 6.513 0 0 1-.148-1.747c.028-.689.224-1.36.571-1.952a3.113 3.113 0 0 1 1.99-1.456 2.5 2.5 0 0 1 1.526.12l.788.299c.23.09.486.09.716-.002l.804-.31c.273-.109.56-.179.851-.209a3.14 3.14 0 0 1 1.282.16 2.826 2.826 0 0 1 1.434 1.063l.026.04a2.871 2.871 0 0 0-1.35 2.657 2.811 2.811 0 0 0 1.71 2.4Zm-5.143-6.513c.268.006.533-.044.78-.147a2.873 2.873 0 0 0 1.708-2.615v-.236c-.118 0-.226.026-.326.052a2.868 2.868 0 0 0-1.886 1.455 2.472 2.472 0 0 0-.354 1.451c.007.044.028.058.078.058v-.018Z" clip-rule="evenodd"/>
    <path fill="#FFE6CC" d="M78.09 45.484a1.96 1.96 0 0 1 1.96 1.96v16.651a1.96 1.96 0 0 1-1.96 1.961H61.44a1.96 1.96 0 0 1-1.961-1.96V47.444a1.96 1.96 0 0 1 1.96-1.961H78.09Z"/>
    <path fill="#FF8000" d="M75.027 50.426a363.62 363.62 0 0 0-5.788.866l.002 4.437c.894-.003 1.787-.014 2.68-.025a247.6 247.6 0 0 1 3.106-.026v-5.252Zm-6.267.964a170.26 170.26 0 0 0-4.337.618h-.003v3.721c.963.004 1.928.003 2.893.002l1.446-.002V51.39Zm-4.34 4.821h4.34v4.067a241.75 241.75 0 0 0-3.025-.418l-1.315-.177V56.21Zm10.607 0H69.24l.009 4.082c1.456.197 3.04.447 4.55.685l1.227.193v-4.96Z"/>
    <path fill="#CFF2F3" d="M18.611 45.483a1.96 1.96 0 0 1 1.961 1.961v16.65a1.96 1.96 0 0 1-1.96 1.962H1.96A1.96 1.96 0 0 1 0 64.095v-16.65a1.96 1.96 0 0 1 1.96-1.962h16.65Z"/>
    <path fill="#0C9A9E" fill-rule="evenodd" d="m15.286 51.881-1.268 2.192a7.472 7.472 0 0 1 3.884 5.981H2.669a7.471 7.471 0 0 1 3.884-5.981L5.285 51.88a.263.263 0 0 1 .228-.395c.095 0 .182.05.229.132l1.283 2.219a7.84 7.84 0 0 1 3.26-.696 7.83 7.83 0 0 1 3.26.696l1.284-2.22a.264.264 0 0 1 .457.264Zm-8.57 6.269a.714.714 0 1 1 0-1.428.714.714 0 0 1 0 1.428Zm7.14 0a.714.714 0 1 1 0-1.428.714.714 0 0 1 0 1.428Z" clip-rule="evenodd"/>
    <path fill="#B3CCFF" d="m28.153 38.35-.002-.134a7.752 7.752 0 0 1 15.313-1.722 5.065 5.065 0 0 1 7.52 4.761 5.456 5.456 0 0 1-1.898 10.57H29.634a6.818 6.818 0 0 1-1.481-13.474Z"/>
    <path fill="#05F" d="m52.2 42.303.002-.134a7.753 7.753 0 0 0-15.313-1.722 5.065 5.065 0 0 0-7.52 4.761 5.456 5.456 0 0 0 1.898 10.569h19.452a6.818 6.818 0 0 0 1.48-13.474Z"/>
    <path fill="#fff" stroke="#fff" stroke-width=".168" d="M45.55 43.452a.32.32 0 0 0-.435.04l-.133.144c-.142.153-.111.396.05.527a4.042 4.042 0 0 1 1.462 3.775 4.014 4.014 0 0 1-1.613 2.638 4.008 4.008 0 0 1-2.6.768l.159-.167h-.01l.604-.634-.557-.532-1.198 1.257-.517.542.557.532 1.257 1.198.518-.543-.814-.775a4.88 4.88 0 0 0 3.117-.937 4.886 4.886 0 0 0 1.964-3.211 4.923 4.923 0 0 0-1.81-4.622Zm-7.005 3.232a4.014 4.014 0 0 1 1.613-2.638 4.008 4.008 0 0 1 2.6-.768l-.16.167h.01l-.604.634.558.532 1.197-1.257.517-.542-.557-.532-1.257-1.198-.517.543.814.775a4.88 4.88 0 0 0-3.118.937 4.886 4.886 0 0 0-1.964 3.211 4.922 4.922 0 0 0 1.81 4.622.32.32 0 0 0 .435-.04l.134-.144c.142-.153.111-.396-.05-.526a4.043 4.043 0 0 1-1.461-3.776Z"/>
    <path fill="#87AFFF" d="M59.168 11.972a.564.564 0 0 1 0-.805.583.583 0 0 1 .817 0l1.214 1.198a.564.564 0 0 1 0 .805.583.583 0 0 1-.817 0l-1.214-1.198Zm2.842 2.804a.564.564 0 0 1 0-.805.583.583 0 0 1 .817 0l1.214 1.198a.564.564 0 0 1 0 .805.583.583 0 0 1-.816 0l-1.214-1.198Zm-2.842 1.198a.582.582 0 0 0 .817 0l1.214-1.198a.564.564 0 0 0 0-.805.583.583 0 0 0-.817 0l-1.214 1.198a.564.564 0 0 0 0 .805Zm3.659-2.804a.583.583 0 0 1-.816 0 .564.564 0 0 1 0-.805l1.214-1.198a.583.583 0 0 1 .816 0 .564.564 0 0 1 0 .805l-1.214 1.198Z"/>
    <path fill="#FFB700" d="M24.3 69v2.2h2.198v1.101H24.3v2.201h-1.1v-2.2H21V71.2h2.2V69h1.1Z"/>
    <path fill="#FFB700" fill-rule="evenodd" d="M71 32.2a2.2 2.2 0 1 0 4.4.002 2.2 2.2 0 0 0-4.4-.001Zm3.343 0a1.144 1.144 0 1 1-2.288.002 1.144 1.144 0 0 1 2.288-.001Z" clip-rule="evenodd"/>
    <path fill="#87AFFF" fill-rule="evenodd" d="M12 20.2a2.2 2.2 0 1 0 4.4.002 2.2 2.2 0 0 0-4.4-.001Zm3.343 0a1.144 1.144 0 1 1-2.288.002 1.144 1.144 0 0 1 2.288-.001Z" clip-rule="evenodd"/>
  </g>
  <defs>
    <clipPath id="a">
      <path fill="#fff" d="M0 0h80v80H0z"/>
    </clipPath>
  </defs>
</svg>
