<svg xmlns="http://www.w3.org/2000/svg" fill="none" viewBox="0 0 80 80">
  <path fill="#CFF2F3" d="M12.211 67.447V5.06A2.06 2.06 0 0 1 14.271 3h40.786c.546 0 1.07.217 1.456.603l9.452 9.452c.386.386.603.91.603 1.457v52.935a2.06 2.06 0 0 1-2.06 2.06H14.272a2.06 2.06 0 0 1-2.06-2.06Z"/>
  <path fill="#4CCBCE" d="M55.989 12.211V3c.834.284 10.601 10.16 10.58 10.585h-9.207a1.373 1.373 0 0 1-1.373-1.374ZM21.514 35.107c0-.77.624-1.394 1.393-1.394h32.966a1.393 1.393 0 0 1 0 2.786H22.907c-.77 0-1.393-.623-1.393-1.392Zm.012-14.694c0-.77.624-1.393 1.393-1.393h32.966a1.393 1.393 0 0 1 0 2.786H22.92c-.77 0-1.394-.624-1.394-1.393Zm-.014 22.041c0-.77.623-1.394 1.393-1.394H55.87a1.393 1.393 0 1 1 0 2.786H22.905c-.77 0-1.393-.623-1.393-1.392Zm.013-14.694c0-.769.624-1.392 1.393-1.392h32.966a1.393 1.393 0 0 1 0 2.786H22.918c-.77 0-1.393-.624-1.393-1.393Zm-.013 22.039c0-.77.623-1.393 1.393-1.393h32.943a1.393 1.393 0 0 1 0 2.786H22.905c-.77 0-1.393-.624-1.393-1.393Zm-.004 7.345c0-.77.624-1.393 1.393-1.393h23.153a1.393 1.393 0 0 1 0 2.786H22.901c-.77 0-1.393-.624-1.393-1.393Z"/>
  <rect width="29.201" height="16.768" x="3" y="8.395" fill="#FF7761" rx="1.673"/>
  <path fill="#fff" d="M8.008 21.1v-7.867h2.703c.435 0 .84.044 1.219.133.378.08.708.22.99.422.281.193.502.454.663.784.17.322.253.72.253 1.195 0 .458-.084.857-.253 1.195a2.26 2.26 0 0 1-.664.832 2.85 2.85 0 0 1-.977.483c-.37.104-.764.157-1.183.157h-.977V21.1H8.008Zm1.774-4.078h.869c.965 0 1.448-.418 1.448-1.255 0-.41-.129-.7-.386-.869-.258-.169-.628-.253-1.11-.253h-.821v2.377Zm5.415 4.078v-7.867h2.22c.603 0 1.146.076 1.629.229.483.153.897.39 1.243.712.346.314.611.716.796 1.207.185.49.278 1.074.278 1.75 0 .675-.093 1.262-.278 1.761a3.318 3.318 0 0 1-.784 1.243 3.255 3.255 0 0 1-1.219.724 4.79 4.79 0 0 1-1.569.241h-2.317Zm1.773-1.436h.338c.338 0 .644-.044.917-.132.274-.089.507-.23.7-.423.193-.2.342-.462.447-.784.112-.322.169-.72.169-1.195 0-.466-.057-.856-.17-1.17-.104-.322-.253-.575-.446-.76a1.618 1.618 0 0 0-.7-.41 3.222 3.222 0 0 0-.917-.121h-.338v4.995Zm5.886 1.436v-7.867h4.96v1.496H24.63v1.822h2.727v1.497H24.63V21.1h-1.774Z"/>
  <rect width="21.25" height="21.25" x="53.568" y="35.982" fill="#3C97F7" rx="2.635"/>
  <path fill="#fff" d="m60.034 51.593-1.85-9.97h2.308l.689 4.664c.06.52.127 1.045.198 1.575.072.52.138 1.045.199 1.575h.061c.102-.53.199-1.055.29-1.575l.306-1.575 1.07-4.663h1.912l1.07 4.663c.102.51.2 1.03.29 1.56.103.52.205 1.05.307 1.59h.06c.072-.54.138-1.07.2-1.59l.214-1.56.688-4.663h2.156l-1.774 9.969H65.6l-.978-4.526a46.74 46.74 0 0 1-.23-1.162c-.06-.398-.117-.78-.168-1.147h-.06c-.062.367-.128.75-.2 1.147-.06.387-.132.774-.214 1.162l-.933 4.526h-2.782Z"/>
  <rect width="26.236" height="15.066" x="19.029" y="63.072" fill="#FFB700" rx="1.852"/>
  <path fill="#fff" d="M25.268 74.366c-.55 0-1.013-.106-1.388-.32-.367-.213-.676-.54-.925-.98l1.101-.815c.133.242.287.422.463.54a.963.963 0 0 0 .54.176c.294 0 .514-.088.66-.265.155-.183.232-.514.232-.991v-4.66h1.62v4.792c0 .345-.048.672-.144.98a2.156 2.156 0 0 1-.418.805 1.906 1.906 0 0 1-.716.54c-.287.132-.628.198-1.025.198Zm3.964-.132V67.05H31.7c.396 0 .767.04 1.113.12.345.074.646.203.903.386.257.177.459.415.606.717.154.293.231.657.231 1.09 0 .419-.077.782-.231 1.09a2.063 2.063 0 0 1-.606.761 2.603 2.603 0 0 1-.892.44 3.953 3.953 0 0 1-1.08.144h-.892v2.435h-1.62Zm1.62-3.724h.793c.881 0 1.322-.382 1.322-1.146 0-.374-.118-.639-.353-.793-.235-.154-.573-.231-1.013-.231h-.75v2.17Zm8.116 3.856c-.492 0-.955-.077-1.388-.231a3.194 3.194 0 0 1-1.113-.706 3.303 3.303 0 0 1-.75-1.145c-.175-.463-.264-.995-.264-1.598 0-.595.092-1.123.276-1.586.183-.47.433-.867.749-1.19.323-.323.698-.57 1.124-.738a3.643 3.643 0 0 1 1.355-.254c.521 0 .97.096 1.344.287.374.19.68.407.914.65l-.848 1.035a3.098 3.098 0 0 0-.584-.407c-.206-.11-.463-.165-.771-.165-.28 0-.536.055-.771.165a1.687 1.687 0 0 0-.595.452c-.17.198-.301.44-.397.727a3.29 3.29 0 0 0-.132.97c0 .741.165 1.318.496 1.729.338.404.844.606 1.52.606.147 0 .29-.019.43-.055a.873.873 0 0 0 .341-.166v-1.233h-1.19V70.19h2.623v3.306c-.25.242-.58.448-.992.617-.411.168-.87.253-1.377.253Z"/>
  <path fill="#FFB700" fill-rule="evenodd" d="M67 8.2a2.2 2.2 0 1 0 4.4.002 2.2 2.2 0 0 0-4.4-.001Zm3.343 0a1.144 1.144 0 1 1-2.288.002 1.144 1.144 0 0 1 2.288-.001Z" clip-rule="evenodd"/>
  <path fill="#FFB700" d="M7.3 42v2.2h2.199v1.101h-2.2v2.201H6.2v-2.2H4V44.2h2.2V42h1.1Z"/>
  <path fill="#87AFFF" d="M70.169 68.972a.564.564 0 0 1 0-.805.583.583 0 0 1 .816 0l1.214 1.198a.564.564 0 0 1 0 .805.583.583 0 0 1-.816 0l-1.214-1.198Zm2.842 2.804a.564.564 0 0 1 0-.805.583.583 0 0 1 .816 0l1.214 1.198a.564.564 0 0 1 0 .805.583.583 0 0 1-.816 0l-1.214-1.198Zm-2.842 1.198c.225.223.59.223.816 0l1.214-1.198a.564.564 0 0 0 0-.805.583.583 0 0 0-.816 0l-1.214 1.198a.564.564 0 0 0 0 .805Zm3.658-2.804a.583.583 0 0 1-.816 0 .564.564 0 0 1 0-.805l1.214-1.198a.583.583 0 0 1 .816 0 .564.564 0 0 1 0 .805l-1.214 1.198Z"/>
</svg>
