<svg xmlns="http://www.w3.org/2000/svg" fill="none" viewBox="0 0 82 81">
  <circle cx="41.113" cy="39.721" r="35.887" fill="#0048D9" stroke="#CDF" stroke-width="3.954"/>
  <path fill="#FFE299" d="m41.338 11.098.954 2.034a.256.256 0 0 0 .19.14l2.153.33a.25.25 0 0 1 .141.422l-1.574 1.613a.255.255 0 0 0-.068.215l.37 2.265a.25.25 0 0 1-.368.26l-1.903-1.053a.253.253 0 0 0-.243 0l-1.902 1.052a.25.25 0 0 1-.367-.259l.368-2.265a.255.255 0 0 0-.068-.215l-1.574-1.617a.25.25 0 0 1 .141-.423l2.154-.328a.255.255 0 0 0 .19-.141l.953-2.034a.25.25 0 0 1 .453.004Zm0 50.065.954 2.034a.255.255 0 0 0 .19.141l2.153.329a.25.25 0 0 1 .141.422l-1.574 1.613a.255.255 0 0 0-.068.216l.37 2.264a.25.25 0 0 1-.368.26l-1.902-1.053a.253.253 0 0 0-.242 0l-1.903 1.053a.25.25 0 0 1-.367-.26l.37-2.264a.255.255 0 0 0-.069-.216l-1.576-1.617a.25.25 0 0 1 .141-.422l2.154-.329a.255.255 0 0 0 .19-.141l.953-2.034a.25.25 0 0 1 .453.004Zm-12.194-46.68.952 2.034a.253.253 0 0 0 .19.141l2.153.329a.25.25 0 0 1 .141.422l-1.572 1.617a.25.25 0 0 0-.068.216l.37 2.265a.25.25 0 0 1-.369.259l-1.902-1.052a.253.253 0 0 0-.242 0l-1.903 1.052a.25.25 0 0 1-.368-.26l.366-2.268a.251.251 0 0 0-.067-.216l-1.573-1.613a.25.25 0 0 1 .142-.422l2.154-.329a.251.251 0 0 0 .188-.14l.959-2.035a.25.25 0 0 1 .449 0Zm25.032 43.359.953 2.038a.254.254 0 0 0 .189.142l2.154.329a.25.25 0 0 1 .14.422l-1.571 1.61a.246.246 0 0 0-.068.215l.37 2.265a.25.25 0 0 1-.37.26l-1.902-1.052a.248.248 0 0 0-.242 0l-1.903 1.051a.25.25 0 0 1-.368-.26l.37-2.264a.249.249 0 0 0-.068-.214l-1.575-1.614a.25.25 0 0 1 .143-.422l2.153-.33a.251.251 0 0 0 .189-.14l.954-2.034a.251.251 0 0 1 .452-.002Zm-34.12-34.711.955 2.034a.255.255 0 0 0 .189.141l2.154.328a.25.25 0 0 1 .14.423l-1.573 1.613a.255.255 0 0 0-.068.215l.37 2.265a.25.25 0 0 1-.368.26l-1.903-1.053a.253.253 0 0 0-.242 0l-1.902 1.053a.25.25 0 0 1-.368-.26l.37-2.265a.255.255 0 0 0-.069-.215l-1.576-1.615a.25.25 0 0 1 .142-.42l2.153-.33a.255.255 0 0 0 .19-.14l.954-2.034a.25.25 0 0 1 .452 0Zm43.359 25.033.955 2.034a.252.252 0 0 0 .188.14l2.154.33a.25.25 0 0 1 .142.422l-1.575 1.613a.251.251 0 0 0-.067.215l.37 2.265a.25.25 0 0 1-.37.26L63.31 54.39a.253.253 0 0 0-.242 0l-1.902 1.053a.25.25 0 0 1-.369-.26l.37-2.265a.25.25 0 0 0-.069-.215l-1.575-1.615a.25.25 0 0 1 .142-.42l2.153-.33a.253.253 0 0 0 .19-.14l.954-2.034a.25.25 0 0 1 .453 0ZM16.304 36.13l.955 2.034a.255.255 0 0 0 .189.142l2.154.328a.25.25 0 0 1 .14.422L18.17 40.67a.255.255 0 0 0-.068.215l.37 2.265a.25.25 0 0 1-.368.259L16.2 42.357a.253.253 0 0 0-.242 0l-1.902 1.052a.25.25 0 0 1-.368-.26l.369-2.264a.255.255 0 0 0-.068-.215l-1.575-1.618a.25.25 0 0 1 .141-.422l2.154-.329a.255.255 0 0 0 .19-.14l.954-2.034a.25.25 0 0 1 .452.004Zm50.066 0 .954 2.033a.255.255 0 0 0 .189.142l2.154.328a.25.25 0 0 1 .141.422l-1.574 1.614a.255.255 0 0 0-.068.215l.37 2.265a.25.25 0 0 1-.368.26l-1.903-1.053a.253.253 0 0 0-.242 0l-1.902 1.052a.25.25 0 0 1-.368-.26l.37-2.264a.255.255 0 0 0-.068-.215l-1.576-1.618a.25.25 0 0 1 .14-.422l2.155-.328a.255.255 0 0 0 .189-.142l.954-2.033a.25.25 0 0 1 .453.004ZM20.498 47.956l.954 2.034a.253.253 0 0 0 .19.141l2.153.329a.25.25 0 0 1 .142.422l-1.574 1.614a.246.246 0 0 0-.069.215l.37 2.265a.25.25 0 0 1-.369.259l-1.902-1.051a.248.248 0 0 0-.242 0l-1.903 1.051a.25.25 0 0 1-.367-.262l.368-2.265a.249.249 0 0 0-.067-.215l-1.575-1.61a.25.25 0 0 1 .141-.423l2.154-.329a.251.251 0 0 0 .188-.14l.955-2.035a.251.251 0 0 1 .453 0Zm43.357-25.032.955 2.033a.255.255 0 0 0 .189.142l2.154.328a.25.25 0 0 1 .14.422l-1.573 1.615a.252.252 0 0 0-.068.214l.37 2.265a.25.25 0 0 1-.368.26L63.75 29.15a.248.248 0 0 0-.242 0l-1.902 1.051a.25.25 0 0 1-.37-.262l.37-2.265a.25.25 0 0 0-.069-.215l-1.573-1.614a.25.25 0 0 1 .14-.422l2.155-.328a.253.253 0 0 0 .189-.142l.954-2.033a.25.25 0 0 1 .452.003Zm-35.153 33.68.954 2.034a.253.253 0 0 0 .19.14l2.153.33a.25.25 0 0 1 .142.422l-1.574 1.613a.255.255 0 0 0-.069.215l.37 2.265a.25.25 0 0 1-.367.26l-1.903-1.053a.253.253 0 0 0-.242 0l-1.905 1.055a.25.25 0 0 1-.367-.26l.37-2.264a.255.255 0 0 0-.069-.215l-1.574-1.617a.25.25 0 0 1 .141-.422l2.154-.328a.255.255 0 0 0 .19-.142l.954-2.033a.25.25 0 0 1 .452 0Zm25.034-43.358.954 2.034a.254.254 0 0 0 .19.14l2.153.33a.25.25 0 0 1 .141.422L55.6 17.785a.255.255 0 0 0-.068.215l.37 2.265a.25.25 0 0 1-.368.26l-1.906-1.053a.253.253 0 0 0-.242 0l-1.901 1.056a.25.25 0 0 1-.367-.259l.369-2.265a.255.255 0 0 0-.068-.215l-1.574-1.617a.25.25 0 0 1 .141-.423l2.154-.327a.255.255 0 0 0 .19-.142l.953-2.033a.25.25 0 0 1 .453-.001Z"/>
  <path fill="#fff" d="M27.961 44.777c-.629 0-1.22-.099-1.774-.296a4.083 4.083 0 0 1-1.423-.901 4.223 4.223 0 0 1-.958-1.465c-.225-.592-.338-1.272-.338-2.042 0-.76.118-1.437.352-2.028a4.472 4.472 0 0 1 .958-1.522 4.2 4.2 0 0 1 1.437-.943 4.657 4.657 0 0 1 1.732-.324c.667 0 1.24.122 1.718.366.48.244.869.521 1.17.831l-1.085 1.324a3.953 3.953 0 0 0-.747-.521c-.262-.141-.591-.211-.986-.211-.356 0-.685.07-.985.21a2.157 2.157 0 0 0-.761.578 2.76 2.76 0 0 0-.507.93c-.113.366-.17.78-.17 1.24 0 .948.212 1.685.635 2.21.432.517 1.08.775 1.943.775.188 0 .371-.023.55-.07a1.11 1.11 0 0 0 .436-.212V41.13h-1.52v-1.69h3.351v4.225c-.319.31-.742.573-1.267.789a4.596 4.596 0 0 1-1.76.324Zm4.925-.17v-9.182h2.592c.704 0 1.338.09 1.901.268a3.766 3.766 0 0 1 1.451.83c.404.367.714.836.93 1.409.215.573.324 1.253.324 2.042 0 .789-.109 1.474-.325 2.057a3.875 3.875 0 0 1-.915 1.45 3.802 3.802 0 0 1-1.422.845 5.593 5.593 0 0 1-1.831.282h-2.705Zm2.07-1.675h.395c.395 0 .751-.052 1.07-.155a2.01 2.01 0 0 0 .817-.493c.226-.235.4-.54.522-.916.131-.375.197-.84.197-1.394 0-.544-.066-1-.197-1.366-.122-.376-.296-.671-.522-.887a1.887 1.887 0 0 0-.816-.48 3.788 3.788 0 0 0-1.07-.14h-.395v5.83Zm6.87 1.676v-9.183h3.156c.507 0 .98.052 1.422.155.441.094.826.258 1.155.493.329.225.587.53.775.915.197.376.295.84.295 1.395 0 .535-.098 1-.295 1.394a2.638 2.638 0 0 1-.775.972 3.329 3.329 0 0 1-1.14.563 5.057 5.057 0 0 1-1.381.183h-1.14v3.113h-2.071Zm2.071-4.76h1.014c1.127 0 1.69-.489 1.69-1.465 0-.48-.15-.817-.45-1.015-.3-.197-.733-.295-1.296-.295h-.958v2.774Zm6.32 4.76v-9.183h3.31c.488 0 .943.047 1.366.14a3.07 3.07 0 0 1 1.127.48 2.3 2.3 0 0 1 .76.873c.188.366.282.821.282 1.366 0 .676-.15 1.235-.45 1.676a2.678 2.678 0 0 1-1.184.972l2.085 3.676h-2.324l-1.761-3.31h-1.14v3.31h-2.071Zm2.07-4.958h1.07c.545 0 .958-.112 1.24-.338.291-.235.437-.577.437-1.028 0-.45-.146-.765-.437-.944-.282-.178-.695-.267-1.24-.267h-1.07v2.577Z"/>
  <path fill="#FFB700" fill-rule="evenodd" d="M60 77.2a2.2 2.2 0 1 0 4.4.002 2.2 2.2 0 0 0-4.4-.001Zm3.343 0a1.144 1.144 0 1 1-2.288.002 1.144 1.144 0 0 1 2.288-.001Z" clip-rule="evenodd"/>
  <path fill="#87AFFF" d="M77.3 62v2.2h2.199v1.101h-2.2v2.201h-1.1v-2.2H74V64.2h2.2V62h1.1ZM5.169 4.972a.564.564 0 0 1 0-.805.583.583 0 0 1 .816 0L7.2 5.365a.564.564 0 0 1 0 .805.583.583 0 0 1-.816 0L5.169 4.972Zm2.842 2.804a.564.564 0 0 1 0-.805.583.583 0 0 1 .816 0l1.214 1.198a.564.564 0 0 1 0 .805.583.583 0 0 1-.816 0L8.011 7.776ZM5.169 8.974c.225.223.59.223.816 0L7.2 7.776a.564.564 0 0 0 0-.805.583.583 0 0 0-.816 0L5.169 8.17a.564.564 0 0 0 0 .805ZM8.827 6.17a.583.583 0 0 1-.816 0 .564.564 0 0 1 0-.805l1.214-1.198a.583.583 0 0 1 .816 0 .564.564 0 0 1 0 .805L8.827 6.17Z"/>
</svg>
