<svg xmlns="http://www.w3.org/2000/svg" fill="none" viewBox="0 0 80 80">
  <path fill="#29B5BB" stroke="#F2F6FF" stroke-width="5.646" d="M38.284 9.72h-.001a14.355 14.355 0 0 1-6.425 1.518h-7.952a3.705 3.705 0 0 0-3.705 3.705V44.87a24.31 24.31 0 0 0 11.803 20.847l10.602 6.361a3.705 3.705 0 0 0 3.812 0l10.602-6.361A24.31 24.31 0 0 0 68.823 44.87V14.943a3.705 3.705 0 0 0-3.705-3.705h-7.952c-2.23 0-4.43-.519-6.425-1.517l-4.573-2.286a3.705 3.705 0 0 0-3.312 0L38.284 9.72Z"/>
  <path fill="#49CFD3" d="M23.022 14.944c0-.487.395-.881.882-.881h7.952c2.668 0 5.3-.621 7.688-1.816l4.478-2.238c.299-.15.488-.043.488.291v59.154c0 .31-.163.38-.428.22l-10.628-6.377a21.487 21.487 0 0 1-10.432-18.425V14.944Z"/>
  <path fill="#fff" d="M54.632 34.926a.882.882 0 0 1 0 1.247L42.986 47.819a.882.882 0 0 1-1.247 0l-7.348-7.349a.882.882 0 0 1 0-1.246l3.05-3.051a.882.882 0 0 1 1.247 0l3.051 3.05a.882.882 0 0 0 1.247 0l7.348-7.348a.882.882 0 0 1 1.247 0l3.05 3.051Z"/>
  <rect width="11.493" height="22.954" x="16.504" y="18.083" stroke="#FFB700" stroke-width="5.546" rx="5.747" transform="rotate(16.9 16.504 18.083)"/>
  <rect width="25.825" height="18.864" x="5.927" y="26.865" fill="#FFE299" rx="2.017" transform="rotate(16.9 5.927 26.865)"/>
  <ellipse cx="15.8" cy="38.791" fill="#CC9200" rx="2.647" ry="2.6" transform="rotate(16.9 15.8 38.79)"/>
  <path fill="#CC9200" d="m16.08 37.863.362 8.668-5.484-1.666 5.123-7.002Z"/>
  <path stroke="#FFE299" stroke-linecap="round" stroke-linejoin="round" stroke-width="2.017" d="M13.477 24.06s.45-1.714 1.119-2.787c.396-.635 1.474-1.667 2.967-2.28m3.598-.4a6.183 6.183 0 0 0-1.343-.097"/>
  <path fill="#87AFFF" d="M8.169 58.972a.564.564 0 0 1 0-.805.583.583 0 0 1 .816 0l1.214 1.198a.564.564 0 0 1 0 .805.583.583 0 0 1-.816 0l-1.214-1.198Zm2.842 2.804a.564.564 0 0 1 0-.805.583.583 0 0 1 .816 0l1.214 1.198a.564.564 0 0 1 0 .805.583.583 0 0 1-.816 0l-1.214-1.198Zm-2.842 1.198c.225.223.59.223.816 0l1.214-1.198a.564.564 0 0 0 0-.805.583.583 0 0 0-.816 0L8.169 62.17a.564.564 0 0 0 0 .805Zm3.658-2.804a.583.583 0 0 1-.816 0 .564.564 0 0 1 0-.805l1.214-1.198a.583.583 0 0 1 .816 0 .564.564 0 0 1 0 .805l-1.214 1.198ZM13.3 7v2.2h2.198v1.101H13.3v2.201h-1.1v-2.2H10V9.2h2.2V7h1.1Z"/>
  <path fill="#FFB700" d="M69.3 67v2.2h2.199v1.101h-2.2v2.201h-1.1v-2.2H66V69.2h2.2V67h1.1Z"/>
  <path fill="#FFB700" fill-rule="evenodd" d="M21 71.2a2.2 2.2 0 1 0 4.4.002 2.2 2.2 0 0 0-4.4-.001Zm3.343 0a1.144 1.144 0 1 1-2.288.002 1.144 1.144 0 0 1 2.288-.001Z" clip-rule="evenodd"/>
</svg>
