<svg xmlns="http://www.w3.org/2000/svg" fill="none" viewBox="0 0 80 80"><rect width="38.52" height="38.52" x="38.14" y="9.31" fill="#FAFAFA" rx="4.97" transform="rotate(74.62 38.14 9.3)"/><path fill="#fff" d="M24.31 45.44a12.34 12.34 0 1 0 0-24.67 12.34 12.34 0 0 0 0 24.67"/><path fill="url(#a)" d="M24.3 37.7a4.6 4.6 0 1 0 0-9.19 4.6 4.6 0 0 0 0 9.2z"/><path fill="url(#b)" d="M35.52 27.5a12.56 12.56 0 0 0-21.65-1.45l5.05 8.74a5.6 5.6 0 0 1 5.27-7.29"/><path fill="url(#c)" d="M13.88 26.04a12.56 12.56 0 0 0 9.42 19.51l5.27-8.97a5.6 5.6 0 0 1-9.65-1.79"/><path fill="url(#d)" d="M23.3 45.56A12.56 12.56 0 0 0 35.53 27.5H24.2a5.6 5.6 0 0 1 4.37 9.09"/><rect width="24.38" height="24.38" x="55.31" y="6" fill="#F4F4F4" rx="3.15" transform="rotate(15 55.31 6)"/><path fill="#E3E3E3" d="m68.58 27.56-12.1-3.24a.9.9 0 0 1-.63-1.09l2.32-8.66a.9.9 0 0 1 1.09-.62l12.1 3.24a.9.9 0 0 1 .63 1.09l-2.32 8.66a.89.89 0 0 1-1.1.62z"/><path fill="#231F20" d="m63.6 21.9-4.1-5.41-2.16 8.06 6.27-2.64z" opacity=".1"/><path fill="#D54B3D" d="M56.48 24.32a.88.88 0 0 1-.64-1.09l2.33-8.66c.12-.48.53-.46 1.01-.33s.84.33.71.79l-2.55 9.52z"/><path fill="#D72B27" fill-rule="evenodd" d="M58.17 14.57c.12-.47.53-.46 1.01-.33s.84.31.71.79l-2.55 9.52-.86-.23a.88.88 0 0 1-.64-1.09zm1.6.43c.07-.26 0-.48-.62-.64-.62-.17-.79-.03-.86.24l-2.32 8.67c-.11.4.13.82.54.93l.74.2z" clip-rule="evenodd"/><path fill="#D54B3D" d="m68.58 27.56-.87-.23 2.56-9.55c.13-.47.53-.43 1.01-.3s.85.29.72.77l-2.33 8.7a.88.88 0 0 1-1.1.61z"/><path fill="#D72B27" fill-rule="evenodd" d="M70.27 17.78c.13-.47.53-.43 1-.3.49.13.86.29.73.77l-2.33 8.69a.88.88 0 0 1-1.1.62l-.86-.23zm1.6.43c.09-.3-.07-.46-.62-.61-.56-.15-.77-.1-.86.22l-2.52 9.42.74.2c.4.1.83-.13.94-.54l2.33-8.69z" clip-rule="evenodd"/><path fill="url(#e)" d="m64.83 26.56-6.29-11.11 5.07 6.46 8.3-3.34-2.24 8.36a.9.9 0 0 1-1.09.63z"/><path fill="#D54B3D" d="m63.59 21.9-5.26-6.48c-.3-.38-.27-.95.12-1.26a.93.93 0 0 1 1.28.15l4.44 5.48 6.63-2.57a.89.89 0 0 1 1.16.52.89.89 0 0 1-.52 1.16z"/><path fill="#D72B27" fill-rule="evenodd" d="m64.17 19.77 6.64-2.55a.88.88 0 0 1 .55-.03c.27.07.5.27.6.56a.9.9 0 0 1-.51 1.15l-7.85 3-5.26-6.47c-.31-.39-.28-.96.1-1.27a.92.92 0 0 1 .8-.16.9.9 0 0 1 .48.3zm7.24-1c.39-.16.58-.6.44-.99a.78.78 0 0 0-.52-.46.85.85 0 0 0-.49.01l-6.62 2.56-.09.03-.06-.07-4.44-5.46a.74.74 0 0 0-.4-.26.8.8 0 0 0-.7.14c-.32.25-.36.74-.1 1.08l5.21 6.4z" clip-rule="evenodd"/><rect width="30.77" height="30.77" x="70.7" y="47.27" fill="#F2F6FF" rx="3.97" transform="rotate(105.14 70.7 47.27)"/><path fill="#0061FF" fill-rule="evenodd" d="m53.3 53.3-5.55 1.78 3.89 4.34-5.55 1.79-3.88-4.37 5.55-1.78-3.9-4.32 5.55-1.78zm-7.5 8.87 5.55-1.79 3.89 4.34-5.55 1.79zm5.85-2.77 5.54-1.79-3.9-4.31 5.53-1.8 3.89 4.35-5.55 1.78 3.89 4.34-5.55 1.78z" clip-rule="evenodd"/><path fill="#FFB700" fill-rule="evenodd" d="M12 67v-2h1v2h2v1h-2v2h-1v-2h-2v-1z" clip-rule="evenodd"/><defs><linearGradient id="a" x1="19.71" x2="19.71" y1="28.53" y2="37.71" gradientUnits="userSpaceOnUse"><stop stop-color="#81B4E0"/><stop offset="1" stop-color="#0C5A94"/></linearGradient><linearGradient id="b" x1="16.95" x2="16.95" y1="20.55" y2="30.76" gradientUnits="userSpaceOnUse"><stop stop-color="#F06B59"/><stop offset="1" stop-color="#DF2227"/></linearGradient><linearGradient id="c" x1="18.48" x2="24.71" y1="45.03" y2="37.38" gradientUnits="userSpaceOnUse"><stop stop-color="#388B41"/><stop offset="1" stop-color="#4CB749"/></linearGradient><linearGradient id="d" x1="33.57" x2="31.08" y1="41.84" y2="38.5" gradientUnits="userSpaceOnUse"><stop stop-color="#E4B022"/><stop offset="1" stop-color="#FCD209"/></linearGradient><linearGradient id="e" x1="56.19" x2="69.44" y1="24.24" y2="27.79" gradientUnits="userSpaceOnUse"><stop stop-opacity=".1"/><stop offset="1" stop-opacity=".2"/></linearGradient></defs></svg>