<svg xmlns="http://www.w3.org/2000/svg" width="80" height="81" fill="none" viewBox="0 0 80 81"><rect width="61.041" height="61.041" x="82.299" y="30.52" fill="#FAFAFA" rx="8.72" transform="rotate(120 82.299 30.52)"/><circle cx="58.933" cy="18.441" r="8.564" fill="#B3CCFF" transform="rotate(5.428 58.933 18.441)"/><rect width="22.838" height="28.548" x="46.484" y="28.729" fill="#B3CCFF" rx="8.564" transform="rotate(5.428 46.484 28.73)"/><circle cx="20.764" cy="24.606" r="7.714" fill="#CDF" transform="rotate(-13.066 20.764 24.606)"/><rect width="20.571" height="25.713" x="13.07" y="36.952" fill="#CDF" rx="7.714" transform="rotate(-13.066 13.07 36.952)"/><circle cx="40.322" cy="14.564" r="8.564" fill="#E5EEFF"/><rect width="22.838" height="28.548" x="28.9" y="25.984" fill="#E5EEFF" rx="8.564"/><path fill="#FF5975" d="M0 51a4 4 0 0 1 4-4h72a4 4 0 0 1 4 4v18.667a4 4 0 0 1-4 4H4a4 4 0 0 1-4-4z"/><path fill="#fff" fill-rule="evenodd" d="M76 49H4a2 2 0 0 0-2 2v18.667a2 2 0 0 0 2 2h72a2 2 0 0 0 2-2V51a2 2 0 0 0-2-2M4 47a4 4 0 0 0-4 4v18.667a4 4 0 0 0 4 4h72a4 4 0 0 0 4-4V51a4 4 0 0 0-4-4z" clip-rule="evenodd"/><path fill="#fff" d="M15.84 65v-1.428h1.656v-4.404h-1.428v-1.092a6 6 0 0 0 1.056-.288q.432-.168.84-.408h1.296v6.192h1.428V65zm8.02-1.128v-2.208h-2.112v-1.248h2.112v-2.208h1.296v2.208h2.112v1.248h-2.112v2.208zm12.04 1.272q-.396 0-.804-.192a2.7 2.7 0 0 1-.744-.588h-.048L34.16 65h-1.38v-8.412h1.764v2.064l-.048.912q.348-.312.744-.48.408-.18.828-.18.54 0 .972.216t.732.612q.312.384.468.948.168.552.168 1.236 0 .768-.216 1.368-.204.6-.564 1.02-.348.408-.804.624a2.1 2.1 0 0 1-.924.216m-.408-1.44q.456 0 .78-.408.324-.42.324-1.344 0-1.608-1.032-1.608-.528 0-1.02.54v2.436q.24.216.48.3t.468.084M39.659 65v-5.952h1.764V65zm.876-6.828q-.444 0-.732-.252a.87.87 0 0 1-.288-.672q0-.408.288-.66t.732-.252q.456 0 .732.252a.84.84 0 0 1 .288.66.87.87 0 0 1-.288.672q-.276.252-.732.252m4.06 6.972q-.456 0-.768-.144a1.3 1.3 0 0 1-.504-.396 1.8 1.8 0 0 1-.264-.624 3.8 3.8 0 0 1-.084-.828v-6.564h1.764v6.636q0 .276.096.384.108.108.216.108h.096a.4.4 0 0 0 .12-.024L45.483 65q-.144.06-.372.096a2.4 2.4 0 0 1-.516.048m3.434 0q-.456 0-.768-.144a1.3 1.3 0 0 1-.504-.396 1.8 1.8 0 0 1-.264-.624 3.8 3.8 0 0 1-.084-.828v-6.564h1.764v6.636q0 .276.096.384.108.108.216.108h.096a.4.4 0 0 0 .12-.024L48.917 65q-.144.06-.372.096a2.4 2.4 0 0 1-.516.048M49.842 65v-5.952h1.764V65zm.877-6.828q-.444 0-.733-.252a.87.87 0 0 1-.287-.672q0-.408.288-.66.287-.252.731-.252.456 0 .732.252a.84.84 0 0 1 .288.66.87.87 0 0 1-.288.672q-.276.252-.732.252m4.996 6.972q-.564 0-1.092-.204a2.9 2.9 0 0 1-.936-.612 3 3 0 0 1-.636-.972 3.5 3.5 0 0 1-.24-1.332q0-.744.24-1.32.24-.588.636-.984.408-.396.936-.6a2.9 2.9 0 0 1 1.092-.216q.564 0 1.08.216.528.204.924.6.408.396.648.984.24.576.24 1.32t-.24 1.332a2.88 2.88 0 0 1-1.572 1.584 2.9 2.9 0 0 1-1.08.204m0-1.428q.54 0 .816-.456t.276-1.236-.276-1.236a.9.9 0 0 0-.816-.456q-.552 0-.828.456-.264.456-.264 1.236t.264 1.236q.276.456.828.456m4.1 1.284v-5.952h1.44l.12.756h.048q.384-.36.84-.624.456-.276 1.068-.276.972 0 1.404.636.444.636.444 1.764V65h-1.764v-3.468q0-.648-.18-.888-.168-.24-.552-.24-.336 0-.576.156-.24.144-.528.42V65z"/></svg>