<?xml version="1.0" encoding="UTF-8"?>
<svg version="1.1" xmlns="http://www.w3.org/2000/svg" width="1200" height="400">
<path d="M0 0 C396 0 792 0 1200 0 C1200 132 1200 264 1200 400 C804 400 408 400 0 400 C0 268 0 136 0 0 Z " fill="#FEFEFE" transform="translate(0,0)"/>
<path d="M0 0 C4.43279587 3.28737058 7.22875123 8.2396413 10.07421875 12.87109375 C14.88002647 10.84382995 18.67511155 7.30010922 22.67773438 4.03515625 C33.5370064 -4.68068258 43.15173333 -6.85529679 57.07421875 -6.12890625 C65.11009266 -5.11170702 73.59282418 -1.17631439 79.07421875 4.87109375 C87.60334041 16.25747116 90.25061568 29.79433999 90.18774414 43.74389648 C90.18789017 44.60323288 90.18803619 45.46256927 90.18818665 46.34794617 C90.1874942 49.1668863 90.17973328 51.98575901 90.171875 54.8046875 C90.17000844 56.76766422 90.16858566 58.73064142 90.16758728 60.69361877 C90.16378081 65.84415996 90.15396658 70.99467266 90.1428833 76.14520264 C90.13262888 81.40734471 90.12808104 86.66949142 90.12304688 91.93164062 C90.11234256 102.24480615 90.09476099 112.55794312 90.07421875 122.87109375 C77.53421875 122.87109375 64.99421875 122.87109375 52.07421875 122.87109375 C52.02523437 116.88855469 51.97625 110.90601563 51.92578125 104.7421875 C51.89038436 100.94594691 51.8544183 97.14972873 51.81640625 93.35351562 C51.75616257 87.33165746 51.69799547 81.30983057 51.65234375 75.2878418 C51.61539499 70.43129541 51.56900908 65.57492145 51.51615524 60.71852303 C51.49766221 58.86826676 51.48253557 57.0179736 51.47087479 55.16766167 C51.453925 52.57049889 51.42486936 49.97372663 51.39306641 47.37670898 C51.39090622 46.61641388 51.38874603 45.85611877 51.38652039 45.07278442 C51.29579298 39.25039314 50.99677846 33.74435705 46.63671875 29.49609375 C41.93079039 26.5118465 37.50505482 26.11490139 32.07421875 26.87109375 C28.77486177 28.14684512 25.94201693 29.80896462 23.07421875 31.87109375 C22.5039115 32.25992296 21.93360426 32.64875217 21.34601498 33.04936409 C17.62024869 35.81293264 17.62024869 35.81293264 15.42167854 39.77593613 C15.17499681 41.99473187 15.14208811 44.12289356 15.18774414 46.35498047 C15.17158051 47.59987495 15.17158051 47.59987495 15.15509033 48.86991882 C15.12780391 51.59778866 15.14953306 54.32290483 15.171875 57.05078125 C15.16248742 58.94794424 15.15002808 60.84509431 15.1346283 62.74221802 C15.10241828 67.72372404 15.111839 72.70430896 15.13000488 77.68585205 C15.14313139 83.66903128 15.10442074 89.65207376 15.07442474 95.63516235 C15.03469759 104.71431935 15.06071268 113.79115724 15.07421875 122.87109375 C2.86421875 122.87109375 -9.34578125 122.87109375 -21.92578125 122.87109375 C-21.96316406 117.06773437 -22.00054687 111.264375 -22.0390625 105.28515625 C-22.06936271 101.59372113 -22.10052398 97.90233303 -22.13476562 94.2109375 C-22.18895299 88.36053933 -22.24006813 82.51023417 -22.2722168 76.65966797 C-22.29835595 71.93920525 -22.33883245 67.21905743 -22.38896751 62.49879074 C-22.40556477 60.70405388 -22.41712328 58.90926264 -22.42339516 57.11445999 C-21.83332781 41.5136181 -21.83332781 41.5136181 -28.55078125 28.24609375 C-34.1097214 25.98134035 -39.20289615 26.12686781 -44.92578125 27.87109375 C-50.24991033 30.35928915 -54.60593979 32.889945 -57.92578125 37.87109375 C-59.63095032 44.10811843 -59.11327953 50.84276918 -59.0234375 57.24609375 C-59.0290952 59.14039652 -59.03871217 61.03469123 -59.05210876 62.92895508 C-59.07665814 67.8943245 -59.04769584 72.85797178 -59.00732422 77.82318115 C-58.97003616 83.79130188 -58.99967029 89.75942554 -59.01799774 95.72758484 C-59.03833752 104.77645147 -58.9740424 113.82116307 -58.92578125 122.87109375 C-71.13578125 122.87109375 -83.34578125 122.87109375 -95.92578125 122.87109375 C-95.92578125 81.29109375 -95.92578125 39.71109375 -95.92578125 -3.12890625 C-85.69578125 -3.12890625 -75.46578125 -3.12890625 -64.92578125 -3.12890625 C-64.26578125 2.15109375 -63.60578125 7.43109375 -62.92578125 12.87109375 C-61.29640625 11.50984375 -59.66703125 10.14859375 -57.98828125 8.74609375 C-40.42960488 -5.58935962 -21.03130131 -12.32869387 0 0 Z " fill="#010101" transform="translate(319.92578125,144.12890625)"/>
<path d="M0 0 C12.21 0 24.42 0 37 0 C37 58.74 37 117.48 37 178 C26.77 178 16.54 178 6 178 C5.34 174.04 4.68 170.08 4 166 C3.2265625 166.60328125 2.453125 167.2065625 1.65625 167.828125 C-8.7214781 175.7912332 -17.84280265 181.41905202 -31.3125 181.3125 C-32.06088135 181.30686035 -32.8092627 181.3012207 -33.58032227 181.29541016 C-45.83414383 181.02749459 -56.25754062 176.02568683 -65.34765625 167.8125 C-80.77969779 150.88468138 -82.87780513 129.35578783 -82.12109375 107.5625 C-81.30804718 90.35738545 -74.35977101 73.06445417 -61.66015625 61.10546875 C-52.34571583 53.73324645 -42.21090157 48.58564434 -30.125 48.6875 C-29.06901611 48.69595947 -29.06901611 48.69595947 -27.99169922 48.70458984 C-17.20182153 48.9559803 -7.65590869 53.34409131 0 61 C0 40.87 0 20.74 0 0 Z " fill="#000000" transform="translate(951,89)"/>
<path d="M0 0 C11.65067457 9.3927919 17.7895912 24.9058922 19.703125 39.4375 C19.96242628 43.90496124 20.03330419 48.35763961 20.01879883 52.83227539 C20.01563503 54.86854495 20.03919509 56.90336152 20.06445312 58.93945312 C20.06836237 66.93385234 19.34332721 73.88145028 16.703125 81.4375 C16.13851562 83.0771875 16.13851562 83.0771875 15.5625 84.75 C8.72771623 101.30750435 -0.64377325 113.12391152 -17.296875 120.4375 C-22.29791628 122.15804173 -26.91071884 122.79433914 -32.171875 122.75 C-32.87586426 122.74436035 -33.57985352 122.7387207 -34.30517578 122.73291016 C-44.35792146 122.49869394 -54.08240975 118.65196525 -61.296875 111.4375 C-61.296875 129.5875 -61.296875 147.7375 -61.296875 166.4375 C-73.836875 166.4375 -86.376875 166.4375 -99.296875 166.4375 C-99.296875 109.3475 -99.296875 52.2575 -99.296875 -6.5625 C-89.066875 -6.5625 -78.836875 -6.5625 -68.296875 -6.5625 C-66.046875 1.3125 -66.046875 1.3125 -66.296875 5.4375 C-62.7671155 3.34389943 -59.30513881 1.16624936 -55.859375 -1.0625 C-37.3814459 -12.81218718 -18.23733481 -12.40635021 0 0 Z " fill="#020202" transform="translate(826.296875,147.5625)"/>
<path d="M0 0 C3.49298529 2.50250864 6.74413553 5.20131574 10 8 C10.99 8.66 11.98 9.32 13 10 C13.99 6.04 14.98 2.08 16 -2 C25.57 -2 35.14 -2 45 -2 C45 39.58 45 81.16 45 124 C34.77 124 24.54 124 14 124 C13.01 118.06 13.01 118.06 12 112 C11.2265625 112.60328125 10.453125 113.2065625 9.65625 113.828125 C-0.7214781 121.7912332 -9.84280265 127.41905202 -23.3125 127.3125 C-24.06088135 127.30686035 -24.8092627 127.3012207 -25.58032227 127.29541016 C-37.81616993 127.02788756 -48.30014806 122.04088628 -57.3515625 113.796875 C-72.98766549 96.7527817 -74.96554021 74.05271576 -74.19091797 52.07080078 C-73.1584968 35.46492684 -65.88760366 20.51611604 -54 9 C-53.34 8.34257812 -52.68 7.68515625 -52 7.0078125 C-38.15679507 -5.99810181 -16.61382579 -9.97305588 0 0 Z " fill="#010101" transform="translate(509,143)"/>
<path d="M0 0 C-1.81448806 9.37485499 -3.9094214 18.68373228 -6 28 C-7.01835938 27.84144531 -8.03671875 27.68289062 -9.0859375 27.51953125 C-12.63097907 27.04898182 -16.05219061 26.76850642 -19.625 26.6875 C-20.71039062 26.65011719 -21.79578125 26.61273438 -22.9140625 26.57421875 C-26.74408514 27.10266491 -28.29091267 28.28615989 -31 31 C-33.66086166 34.62399563 -33.4404572 38.91368146 -33.625 43.25 C-33.810625 47.08625 -33.810625 47.08625 -34 51 C-26.74 51 -19.48 51 -12 51 C-12 60.9 -12 70.8 -12 81 C-19.26 81 -26.52 81 -34 81 C-34 112.68 -34 144.36 -34 177 C-46.54 177 -59.08 177 -72 177 C-72 145.32 -72 113.64 -72 81 C-77.28 81 -82.56 81 -88 81 C-88 71.43 -88 61.86 -88 52 C-82.72 52 -77.44 52 -72 52 C-72.061875 49.81375 -72.12375 47.6275 -72.1875 45.375 C-72.30483857 31.68399625 -69.29167937 17.92480014 -59.7890625 7.59375 C-53.7547999 2.21824969 -46.68593751 -0.81524476 -39 -3 C-26.87043613 -7.04318796 -11.75281916 -4.04398078 0 0 Z " fill="#030303" transform="translate(1099,90)"/>
<path d="M0 0 C-4.88576509 7.68614264 -10.39553361 14.83381472 -16 22 C-19.42734817 20.68037931 -22.67765678 19.18914467 -25.9375 17.5 C-34.18247241 13.39567453 -42.59521981 10.92277399 -51.74609375 13.890625 C-54.12689061 14.91211796 -54.12689061 14.91211796 -56 17 C-56.83086042 20.17122298 -56.7756075 22.82183836 -56 26 C-50.3283108 31.67861857 -41.91282461 34.25965048 -34.5625 37 C-24.42190269 40.79430919 -14.28212202 44.64697768 -7 53 C-6.319375 53.7425 -5.63875 54.485 -4.9375 55.25 C1.61197415 64.54602782 1.92141112 73.18900614 0.75 84.390625 C-1.16934798 94.22728342 -7.99695304 102.38536237 -16 108 C-19.57279648 109.95015141 -23.20224805 111.54251641 -27 113 C-28.0725 113.4125 -29.145 113.825 -30.25 114.25 C-49.05547091 119.37876479 -70.90829978 116.32271736 -87.83544922 106.98779297 C-91.39753355 104.88482877 -94.88201901 102.72315286 -98 100 C-98 94.97958248 -94.53398648 91.47040547 -91.75 87.4375 C-91.16347656 86.56158203 -90.57695313 85.68566406 -89.97265625 84.78320312 C-89.11220703 83.52733398 -89.11220703 83.52733398 -88.234375 82.24609375 C-87.71069336 81.47966553 -87.18701172 80.7132373 -86.64746094 79.92358398 C-84.87118181 77.84959121 -83.58328872 76.86807781 -81 76 C-78.44921875 77.23046875 -78.44921875 77.23046875 -75.6875 79.1875 C-67.24631661 84.90862163 -60.31660944 87.17383206 -50.0625 87.25 C-49.37220703 87.270625 -48.68191406 87.29125 -47.97070312 87.3125 C-43.22595277 87.34847915 -40.0148992 86.52540224 -36 84 C-34.37058839 80.74117678 -34.34120552 77.51130664 -35 74 C-39.47436179 68.47284719 -46.47782253 66.4851264 -52.90966797 63.85644531 C-75.01289083 54.80037129 -75.01289083 54.80037129 -82 48 C-82.85271484 47.17048828 -82.85271484 47.17048828 -83.72265625 46.32421875 C-90.64939517 38.92094742 -93.39702013 29.98084411 -93.27734375 20.0078125 C-92.33836391 9.82451002 -87.10806647 1.63386045 -79.75 -5.1875 C-55.60917004 -24.6695733 -22.86779561 -17.00273922 0 0 Z " fill="#020202" transform="translate(199,154)"/>
<path d="M0 0 C12.54 0 25.08 0 38 0 C38 58.74 38 117.48 38 178 C25.46 178 12.92 178 0 178 C0 119.26 0 60.52 0 0 Z " fill="#030303" transform="translate(657,89)"/>
<path d="M0 0 C12.21 0 24.42 0 37 0 C37 58.74 37 117.48 37 178 C24.79 178 12.58 178 0 178 C0 119.26 0 60.52 0 0 Z " fill="#000000" transform="translate(587,89)"/>
<path d="M0 0 C2.25447093 0.95163597 4.26427973 1.92587599 6.33203125 3.234375 C7.60868652 3.90714478 7.60868652 3.90714478 8.91113281 4.59350586 C12.76390469 8.79635311 12.08576831 13.2436527 12.06640625 18.75390625 C12.07593323 19.88583908 12.08546021 21.01777191 12.09527588 22.18400574 C12.10744081 24.57877572 12.10660004 26.9736418 12.09375 29.3684082 C12.08210407 33.02401767 12.13422982 36.67497631 12.19140625 40.33007812 C12.1952927 42.65885092 12.19541558 44.98763366 12.19140625 47.31640625 C12.21184998 48.40516556 12.2322937 49.49392487 12.25335693 50.61567688 C12.17028847 56.08434185 11.85045998 59.38379208 7.92211914 63.38183594 C1.88493267 68.5243371 -4.25139033 70.98961157 -12.24609375 70.6171875 C-18.11659625 69.68926936 -22.95914209 66.9364658 -26.57421875 62.13671875 C-33.67417306 49.78786964 -34.34132024 34.17367962 -32.01953125 20.3828125 C-30.06228868 13.23971354 -27.16975518 8.1884172 -21.66796875 3.234375 C-20.80171875 2.409375 -19.93546875 1.584375 -19.04296875 0.734375 C-13.01205345 -1.9460318 -6.32022332 -1.81370977 0 0 Z " fill="#FAFAFA" transform="translate(939.66796875,169.765625)"/>
<path d="M0 0 C1.05574219 0.51820313 1.05574219 0.51820313 2.1328125 1.046875 C3.65805542 1.70610962 3.65805542 1.70610962 5.21411133 2.37866211 C8.52999949 5.40997467 8.60058322 5.98444683 8.92504883 10.25512695 C8.97145877 12.43134899 8.98240249 14.60851022 8.96484375 16.78515625 C8.9770118 18.51634956 8.9770118 18.51634956 8.98942566 20.28251648 C8.99789017 22.72438969 8.99101099 25.16635706 8.9699707 27.6081543 C8.94546395 31.3363346 8.98999685 35.05928827 9.04101562 38.78710938 C9.04064501 41.16146268 9.03622014 43.53581951 9.02734375 45.91015625 C9.05330376 47.57610588 9.05330376 47.57610588 9.07978821 49.27571106 C8.98064239 54.7897927 8.68423278 58.17356892 4.72070312 62.20800781 C-1.31541407 67.33287496 -7.46269423 69.81810567 -15.44921875 69.421875 C-21.18150246 68.53286169 -25.31426981 66.09822305 -29.1171875 61.734375 C-37.20818576 49.70841037 -37.6014831 33.07295073 -35.20703125 19.23046875 C-33.2899687 12.06845586 -30.37852914 6.99856605 -24.8671875 2.046875 C-23.9803125 1.221875 -23.0934375 0.396875 -22.1796875 -0.453125 C-15.06671748 -3.67409255 -7.20031269 -2.54128683 0 0 Z " fill="#FAFAFA" transform="translate(508.8671875,170.953125)"/>
<path d="M0 0 C5.33411315 3.14490421 8.47568401 8.80005009 10.22265625 14.61401367 C11.62909467 20.28777079 11.94047499 25.73466593 11.875 31.5625 C11.86376099 32.88290283 11.86376099 32.88290283 11.85229492 34.22998047 C11.67555404 44.87985263 10.30044285 55.20697584 2.953125 63.515625 C-2.27044149 68.27692897 -7.73474767 70.20617977 -14.79296875 70.0859375 C-20.70020694 69.03139271 -27.12349956 65.87650044 -31.375 61.625 C-31.68280029 59.42623901 -31.68280029 59.42623901 -31.76074219 56.65966797 C-31.79286804 55.62454071 -31.8249939 54.58941345 -31.85809326 53.5229187 C-31.94707082 48.77181523 -32.02917058 44.02127395 -32.07519531 39.26953125 C-32.10826152 36.76687351 -32.16277499 34.26440263 -32.23925781 31.76269531 C-32.34911753 28.15069896 -32.39258282 24.54313206 -32.421875 20.9296875 C-32.46721375 19.81794159 -32.51255249 18.70619568 -32.55926514 17.5607605 C-32.53362748 12.81992356 -32.41336259 9.83451108 -29.25354004 6.15386963 C-20.77940347 -0.84357287 -10.73465699 -4.38486952 0 0 Z " fill="#FDFDFD" transform="translate(796.375,170.375)"/>
</svg>
